<?xml version="1.0" encoding="UTF-8"?>
<svg id="Layer_1" xmlns="http://www.w3.org/2000/svg" version="1.1" viewBox="0 0 529.22 180.07">
  <!-- Generator: Adobe Illustrator 30.1.0, SVG Export Plug-In . SVG Version: 2.1.1 Build 136)  -->
  <defs>
    <style>
      .st0 {
        fill: #fff;
      }
    </style>
  </defs>
  <g>
    <path class="st0" d="M264.61,108c-29.77,0-54-24.22-54-54S234.84,0,264.61,0s54,24.22,54,54-24.22,54-54,54ZM264.61.76c-29.36,0-53.24,23.88-53.24,53.24s23.88,53.24,53.24,53.24,53.24-23.88,53.24-53.24S293.97.76,264.61.76Z"/>
    <g>
      <path class="st0" d="M292.82,48.23s-2.17,2.61-2.2,2.66h-.02c-.05-.02-1.34-.54-1.34-.54l.1.65c.09.72.2,1.84.19,3,0,.99-.07,2.06-.19,2.99l-.09.65s1.31-.55,1.35-.54c.19.23,2.62,3.18,2.62,3.18l.38-1.03s2.33.58,2.33.58c0,0-.47-1.85-.5-1.95h0c.2-.08,1.31-.51,1.31-.51l-.51-.41c-.38-.31-.78-.62-1.08-.87,1.33.24,2.41.49,2.41.49l.85.2s-.81-1.43-.88-1.55c.37-.18,1.51-.75,1.76-.88l.68-.35-.68-.34c-.26-.13-1.39-.71-1.76-.88.07-.12.88-1.55.88-1.55l-.85.19s-1.08.25-2.41.5c.3-.25.7-.56,1.08-.86l.51-.42s-1.09-.43-1.31-.5v-.02c.02-.1.22-.86.33-1.32l.17-.62s-2.32.58-2.33.58l-.38-1.03-.42.52ZM293.91,49.46c.21-.06.62-.17.97-.26-.09.36-.19.76-.19.76-.03.11-.04.19-.04.26,0,.42.36.57.44.59,0,0,.09.03.16.06-1.05.84-1.11.89-1.13.92-.11.13-.17.28-.17.43,0,.1.02.18.07.27.15.23.4.33.71.29.84-.15,1.62-.3,2.18-.43-.03.04-.08.13-.08.13-.04.08-.13.21-.13.38,0,.05.02.1.02.15.06.19.21.33.42.42h0c.07.04.6.3,1.14.57l-1.16.57c-.22.1-.35.24-.41.42,0,.06-.02.11-.02.16,0,.2.19.47.21.5-.57-.11-1.34-.27-2.18-.41-.31-.06-.59.04-.71.28-.06.08-.07.17-.07.27,0,.14.06.29.17.43.04.03.08.08,1.13.92-.08.03-.16.05-.16.05-.08.03-.43.17-.44.58,0,.16.16.7.24,1.03-.35-.09-.81-.22-1.01-.27-.33-.09-.52-.04-.65.04-.09.06-.17.13-.23.23-.54-.67-1.82-2.2-1.82-2.2-.27-.31-.68-.31-.95-.15,0,0-.06.04-.05,0,.08-.81.12-1.66.12-2.46v-.1c0-.85-.06-1.68-.12-2.36,0-.02.05.02.05.02.26.15.68.16.94-.16,0,0,1.19-1.42,1.82-2.2.06.09.14.18.23.23.13.07.34.12.69.02Z"/>
      <path class="st0" d="M286.91,35.78s-.71,3.32-.71,3.38h-.02c-.05.02-1.43.16-1.43.16l.39.53c.41.6,1.03,1.53,1.56,2.56.45.88.89,1.86,1.22,2.74l.22.62s.9-1.09.95-1.1c.27.11,3.8,1.6,3.8,1.6l-.15-1.09s2.33-.57,2.33-.57c0,0-1.28-1.42-1.35-1.5h0c.15-.16.92-1.06.92-1.06l-.64-.12c-.48-.09-.98-.19-1.35-.27,1.29-.4,2.36-.69,2.36-.69l.85-.22s-1.38-.88-1.5-.97c.25-.33.98-1.37,1.15-1.6l.44-.62h-.76c-.29.02-1.56.03-1.97.05,0-.14.06-1.78.06-1.78l-.67.56s-.84.72-1.91,1.56c.15-.36.35-.82.55-1.26l.26-.61s-1.17.13-1.4.16h0c-.02-.11-.21-.88-.33-1.34l-.14-.63s-1.78,1.59-1.79,1.6l-.81-.74-.13.65ZM288.45,36.36c.16-.15.47-.44.74-.68.08.36.18.76.18.76.03.11.05.19.08.25.2.37.59.34.67.32,0,0,.09-.01.17-.03-.54,1.23-.56,1.31-.58,1.34-.04.17-.02.32.05.46.04.08.1.15.19.2.23.13.51.11.77-.08.67-.53,1.29-1.02,1.74-1.39,0,.05-.01.16-.01.16,0,.09-.02.24.06.39.02.04.06.08.09.12.14.14.33.19.57.18h0c.08,0,.67-.02,1.27-.03l-.76,1.05c-.15.19-.2.38-.17.56.02.05.03.11.05.15.09.18.38.33.42.34-.55.17-1.31.38-2.12.65-.31.1-.5.31-.5.58-.01.1.01.19.06.27.07.13.19.23.34.3.04,0,.11.03,1.43.29-.05.06-.12.12-.12.12-.05.06-.3.35-.12.72.07.14.46.54.69.8-.36.09-.82.18-1.02.23-.33.08-.48.21-.56.33-.05.1-.09.19-.1.31-.79-.34-2.63-1.1-2.63-1.1-.38-.15-.75.04-.91.31,0,0-.03.06-.04.03-.3-.75-.66-1.52-1.03-2.23-.02-.03-.03-.06-.05-.09-.4-.76-.84-1.46-1.21-2.03,0-.02.05,0,.05,0,.3,0,.67-.18.76-.58,0,0,.39-1.81.59-2.79.1.05.2.09.31.1.15,0,.36-.06.62-.3Z"/>
      <path class="st0" d="M281.9,34.26c.43-.04,3.7-.34,3.7-.34,0,0-.22-.31-.27-.39-.05-.08-.2-.27.14-.58.34-.3,1.32-1.19,1.32-1.19,0,0-1.23-.45-1.39-.51-.08-.03-.34-.08-.27-.37.04-.16.23-.88.23-.88,0,0-1.99.6-2.1.62-.25.05-.39-.19-.14-.45,1.22-1.25,2.33-2.27,2.33-2.27,0,0-.99-.09-1.06-.09-.1,0-.32-.01-.27-.36.03-.18.3-2.17.3-2.17,0,0-1.75.97-1.91,1.07-.31.18-.38-.03-.44-.14-.03-.05-.46-.96-.46-.96,0,0-.56,1.4-1.29,2.99-.16.31-.42.28-.47.03-.02-.1-.17-2.19-.17-2.19,0,0-.61.43-.73.53-.21.16-.39-.07-.43-.12-.12-.12-.97-1.12-.97-1.12,0,0-.5,1.22-.64,1.67-.13.48-.44.36-.5.34-.08-.01-.46-.12-.46-.12,0,0,.87,3.16.98,3.58.08.29-.22.45-.22.45l-.66.44c.91.47,1.91,1.05,2.78,1.66.87.6,1.77,1.32,2.53,2.02l.17-.77s.05-.34.36-.37Z"/>
      <path class="st0" d="M270.75,28.49c.36-.24,3.11-2.02,3.11-2.02,0,0-.34-.17-.42-.22-.09-.05-.31-.15-.15-.58.16-.43.62-1.67.62-1.67,0,0-1.3.17-1.47.19-.08.01-.34.09-.41-.2-.04-.16-.2-.88-.2-.88,0,0-1.49,1.45-1.57,1.52-.2.16-.43.01-.33-.33.5-1.68,1.01-3.09,1.01-3.09,0,0-.92.38-.98.41-.09.04-.29.14-.41-.2-.06-.18-.74-2.06-.74-2.06,0,0-1.1,1.67-1.2,1.83-.19.3-.35.15-.46.08-.05-.04-.86-.63-.86-.63,0,0,.16,1.5.25,3.25,0,.35-.24.44-.41.24-.07-.08-1.17-1.86-1.17-1.86,0,0-.34.67-.4.81-.11.24-.38.12-.44.09-.16-.05-1.38-.54-1.38-.54,0,0,.12,1.31.21,1.77.11.48-.23.52-.28.53-.08.03-.46.1-.46.1,0,0,2.24,2.39,2.54,2.72.21.22.01.5.01.5l-.38.69c1.02,0,2.18.04,3.24.18,1.05.13,2.18.34,3.18.61l-.21-.76s-.11-.32.14-.49Z"/>
      <path class="st0" d="M258.19,28.56c.21-.38,1.82-3.23,1.82-3.23,0,0-.38,0-.48,0-.1,0-.34.01-.4-.45-.06-.45-.23-1.76-.23-1.76,0,0-1.07.75-1.21.85-.07.05-.26.24-.46.01-.11-.13-.59-.69-.59-.69,0,0-.64,1.98-.69,2.08-.1.24-.38.21-.44-.14-.34-1.72-.54-3.21-.54-3.21,0,0-.63.76-.68.82-.06.08-.19.26-.45.02-.14-.13-1.61-1.48-1.61-1.48,0,0-.2,1.99-.21,2.18-.03.36-.24.3-.37.28-.06,0-1.05-.16-1.05-.16,0,0,.83,1.25,1.73,2.76.17.31,0,.5-.25.4-.1-.04-1.9-1.1-1.9-1.1,0,0,0,.75.02.91.01.26-.28.28-.35.29-.17.03-1.47.16-1.47.16,0,0,.72,1.11,1.01,1.48.32.38.05.57,0,.6-.06.06-.36.3-.36.3,0,0,3.1,1.08,3.51,1.23.29.1.25.44.25.44v.79c.89-.48,1.94-.98,2.93-1.35.99-.38,2.09-.71,3.1-.94l-.53-.57s-.25-.23-.1-.5Z"/>
      <path class="st0" d="M247.1,34.46c.01-.43.11-3.71.11-3.71,0,0-.33.18-.42.22-.09.04-.29.17-.56-.21-.26-.37-1.02-1.46-1.02-1.46,0,0-.6,1.17-.68,1.31-.04.07-.12.33-.4.22-.15-.06-.84-.33-.84-.33,0,0,.35,2.05.36,2.16.02.26-.23.36-.46.08-1.1-1.36-1.97-2.59-1.97-2.59,0,0-.21.97-.22,1.04-.02.1-.05.32-.39.22-.18-.05-2.12-.56-2.12-.56,0,0,.75,1.85.83,2.03.14.33-.07.38-.19.42-.06.02-1.01.34-1.01.34,0,0,1.32.72,2.82,1.64.29.19.23.45-.03.47-.11,0-2.19-.1-2.19-.1,0,0,.36.66.44.79.14.23-.12.38-.18.42-.13.1-1.23.83-1.23.83,0,0,1.15.65,1.58.84.46.18.3.48.27.53-.02.08-.18.44-.18.44,0,0,3.24-.49,3.68-.54.3-.05.42.27.42.27l.35.7c.57-.85,1.27-1.77,1.99-2.56.7-.79,1.52-1.6,2.31-2.27l-.74-.26s-.33-.09-.32-.4Z"/>
      <path class="st0" d="M240.03,44.83c-.19-.39-1.63-3.34-1.63-3.34,0,0-.21.32-.27.39-.06.08-.18.29-.59.07-.41-.21-1.58-.82-1.58-.82,0,0,.01,1.31.01,1.48,0,.08.04.35-.25.38-.17.02-.9.1-.9.1,0,0,1.26,1.65,1.32,1.75.14.22-.04.43-.37.28-1.6-.7-2.95-1.37-2.95-1.37,0,0,.27.96.29,1.03.03.1.1.3-.24.38-.18.04-2.14.49-2.14.49,0,0,1.53,1.29,1.68,1.41.28.23.11.37.02.46-.04.04-.73.77-.73.77,0,0,1.5.03,3.26.14.35.03.41.29.19.43-.09.06-1.98.93-1.98.93,0,0,.62.42.76.5.23.14.07.39.04.45-.07.15-.7,1.31-.7,1.31,0,0,1.32.04,1.79.01.49-.05.49.29.49.35.02.08.05.47.05.47,0,0,2.64-1.94,3-2.19.25-.18.5.05.5.05l.64.46c.11-1.02.31-2.16.57-3.19.26-1.03.61-2.13.99-3.08l-.78.11s-.34.07-.47-.2Z"/>
      <path class="st0" d="M238.58,57.31c-.35-.26-2.99-2.2-2.99-2.2,0,0-.04.38-.05.47-.01.1-.03.34-.49.34-.46,0-1.78.01-1.78.01,0,0,.62,1.15.7,1.3.04.07.2.29-.04.46-.14.09-.75.5-.75.5,0,0,1.88.87,1.98.93.22.13.16.4-.19.42-1.74.13-3.25.15-3.25.15,0,0,.68.72.73.77.07.07.23.22-.04.45-.14.12-1.67,1.42-1.67,1.42,0,0,1.95.44,2.14.47.35.07.27.27.23.4-.02.06-.29,1.02-.29,1.02,0,0,1.34-.68,2.95-1.39.33-.13.5.07.37.29-.05.09-1.32,1.75-1.32,1.75,0,0,.75.08.9.09.27.02.24.31.24.38,0,.17-.02,1.48-.02,1.48,0,0,1.19-.58,1.59-.82.41-.27.57.02.59.08.05.07.26.39.26.39,0,0,1.44-2.94,1.64-3.34.13-.27.46-.19.46-.19l.78.11c-.37-.95-.73-2.05-.98-3.09-.25-1.03-.45-2.16-.56-3.19l-.63.46s-.26.22-.51.04Z"/>
      <path class="st0" d="M243.1,69.02c-.43-.06-3.67-.55-3.67-.55,0,0,.14.35.17.44.03.09.13.31-.28.53-.4.21-1.57.84-1.57.84,0,0,1.08.73,1.22.83.07.05.31.16.17.42-.08.15-.43.8-.43.8,0,0,2.07-.1,2.19-.1.26.01.33.28.02.46-1.48.92-2.8,1.65-2.8,1.65,0,0,.94.32,1.01.34.1.03.31.09.17.42-.07.17-.82,2.03-.82,2.03,0,0,1.93-.52,2.11-.58.35-.1.37.12.39.24.01.06.22,1.04.22,1.04,0,0,.88-1.22,1.97-2.6.23-.27.47-.17.46.09,0,.11-.36,2.16-.36,2.16,0,0,.7-.28.84-.34.24-.11.36.16.39.22.09.14.67,1.32.67,1.32,0,0,.78-1.06,1.02-1.46.24-.43.52-.24.56-.21.08.03.41.23.41.23,0,0-.09-3.28-.1-3.72,0-.31.32-.38.32-.38l.74-.27c-.77-.67-1.6-1.48-2.3-2.28-.7-.8-1.41-1.71-1.98-2.56l-.35.7s-.13.32-.43.27Z"/>
      <path class="st0" d="M252.55,77.3c-.41.14-3.51,1.21-3.51,1.21,0,0,.29.25.36.31.07.07.26.21,0,.6-.26.38-1,1.47-1,1.47,0,0,1.3.14,1.47.17.08.01.35,0,.35.29,0,.17-.01.91-.01.91,0,0,1.79-1.05,1.89-1.1.23-.11.42.09.24.4-.89,1.51-1.72,2.76-1.72,2.76,0,0,.98-.15,1.05-.16.1-.02.31-.07.35.29.02.19.22,2.18.22,2.18,0,0,1.47-1.36,1.6-1.49.26-.25.38-.06.46.03.04.05.68.82.68.82,0,0,.21-1.49.53-3.22.08-.34.34-.37.45-.14.05.1.69,2.08.69,2.08,0,0,.49-.57.59-.69.16-.21.4-.02.45.02.14.09,1.21.86,1.21.86,0,0,.2-1.31.23-1.77,0-.49.34-.46.4-.44.08,0,.47.01.47.01,0,0-1.6-2.86-1.81-3.25-.15-.27.11-.49.11-.49l.53-.58c-1-.24-2.11-.56-3.1-.95-.99-.38-2.04-.86-2.94-1.35l.02.78s.03.34-.26.44Z"/>
      <path class="st0" d="M264.76,80.23c-.3.32-2.54,2.71-2.54,2.71,0,0,.37.09.46.11.1.03.33.07.28.53-.05.45-.2,1.77-.2,1.77,0,0,1.22-.48,1.38-.54.08-.03.31-.17.45.1.08.15.41.81.41.81,0,0,1.1-1.77,1.16-1.86.16-.21.41-.11.4.24-.09,1.75-.24,3.24-.24,3.24,0,0,.8-.59.86-.64.08-.06.25-.2.44.09.1.16,1.21,1.83,1.21,1.83,0,0,.67-1.89.72-2.07.12-.34.31-.23.42-.19.06.02.98.41.98.41,0,0-.51-1.42-1.02-3.09-.09-.34.12-.48.34-.33.08.06,1.58,1.52,1.58,1.52,0,0,.17-.73.2-.88.05-.26.34-.2.41-.19.17.01,1.47.2,1.47.2,0,0-.43-1.25-.62-1.67-.22-.44.09-.56.15-.58.07-.04.42-.21.42-.21,0,0-2.75-1.79-3.11-2.03-.26-.17-.13-.48-.13-.48l.2-.76c-.99.25-2.13.48-3.18.6-1.05.13-2.2.19-3.23.17l.38.69s.19.29-.02.51Z"/>
      <path class="st0" d="M276.93,77.16c-.12.42-.99,3.58-.99,3.58,0,0,.37-.1.46-.12.1-.02.33-.1.49.34.16.43.64,1.66.64,1.66,0,0,.86-.99.97-1.11.06-.06.2-.29.44-.12.14.1.74.53.74.53,0,0,.15-2.07.17-2.18.04-.26.31-.29.46.03.74,1.59,1.3,2.98,1.3,2.98,0,0,.43-.89.46-.96.04-.09.13-.3.44-.12.16.09,1.92,1.05,1.92,1.05,0,0-.28-1.98-.32-2.17-.06-.36.16-.35.29-.36.06,0,1.06-.09,1.06-.09,0,0-1.11-1.02-2.34-2.26-.24-.26-.11-.49.14-.45.1.02,2.1.62,2.1.62,0,0-.19-.73-.24-.87-.08-.25.21-.34.27-.36.15-.07,1.39-.51,1.39-.51,0,0-.96-.9-1.33-1.19-.4-.29-.18-.54-.14-.58.04-.07.28-.38.28-.38,0,0-3.26-.3-3.7-.35-.3-.03-.34-.37-.34-.37l-.18-.77c-.76.69-1.66,1.41-2.54,2.01-.88.6-1.86,1.19-2.78,1.65l.66.43s.3.17.22.46Z"/>
      <path class="st0" d="M292.27,62s-3.14,1.3-3.19,1.33h-.02s-.94-1.11-.94-1.11l-.21.62c-.26.68-.68,1.72-1.22,2.74-.47.87-1.02,1.79-1.56,2.56l-.38.53s1.42.12,1.44.15c.06.29.84,4.04.84,4.04l.82-.74s1.79,1.59,1.79,1.59c0,0,.44-1.86.47-1.96h0c.21.02,1.4.15,1.4.15l-.26-.6c-.19-.45-.4-.91-.55-1.27,1.07.83,1.91,1.55,1.91,1.55l.66.57s-.06-1.64-.06-1.79c.41.02,1.68.03,1.97.04h.76s-.44-.61-.44-.61c-.17-.24-.9-1.28-1.15-1.6.12-.08,1.5-.96,1.5-.96l-.84-.23s-1.07-.28-2.37-.68c.38-.08.88-.18,1.35-.26l.65-.13s-.77-.89-.92-1.06h0c.06-.09.59-.67.91-1.03l.44-.47s-2.32-.57-2.33-.57l.15-1.09-.61.26ZM292.67,63.6c.21.04.63.14.98.23-.25.27-.52.58-.52.58-.07.08-.13.15-.16.21-.2.37.06.67.11.73,0,0,.06.07.12.13-1.32.26-1.39.28-1.43.29-.16.06-.28.17-.35.3-.04.08-.07.17-.06.27.02.27.2.48.5.59.82.26,1.57.48,2.13.64-.04.02-.14.08-.14.08-.07.05-.21.12-.29.27-.02.04-.03.1-.05.15-.04.19.03.38.18.57h0c.05.07.4.55.75,1.04l-1.29-.03c-.24-.01-.42.05-.56.18-.03.05-.07.09-.09.13-.09.18-.05.5-.04.54-.45-.36-1.06-.86-1.74-1.38-.25-.2-.54-.23-.76-.08-.09.05-.15.12-.19.2-.07.13-.09.29-.05.46.02.04.04.11.57,1.34-.08-.01-.17-.03-.17-.03-.08,0-.46-.05-.66.31-.08.14-.19.69-.27,1.02-.27-.24-.61-.57-.77-.71-.25-.23-.44-.27-.59-.27-.11.01-.21.04-.31.1-.17-.84-.59-2.79-.59-2.79-.09-.4-.46-.59-.77-.57,0,0-.07,0-.05-.02.45-.68.88-1.41,1.25-2.12.02-.03.03-.06.05-.09.4-.76.73-1.52.98-2.14.01-.01.04.04.04.04.16.25.53.45.91.29,0,0,1.71-.7,2.64-1.1.01.11.04.22.1.31.08.12.25.26.6.34Z"/>
    </g>
  </g>
  <g>
    <path class="st0" d="M74.91,179.25c.34-.03.68-.06,1.17-.06s.92.03,1.34.06c.42.03.86.06,1.35.06h.08v-.86h-.07c-1.37-.13-1.65-.51-1.65-1.07,0-.34.16-.96.25-1.21l.86-2.46h4.79l.75,2.45c.02.05.03.11.05.17.1.3.24.76.24,1.04,0,.6-.45.89-1.68,1.09h-.06v.85h.08c.56,0,1.13-.03,1.69-.06.57-.03,1.15-.06,1.72-.06s1.1.03,1.61.06c.49.03.95.06,1.45.06h.08v-.86h-.06c-.51-.1-.93-.29-1.19-.55-.26-.22-.46-.56-.7-1.15l-3.41-9.91c-.29-.8-.8-2.33-.93-3v-.08s-.09.02-.09.02c-.64.14-2.39.37-2.41.37h-.05s-.01.06-.01.06c-.17.75-.52,1.77-.83,2.66l-3.43,9.31v.03c-.15.37-.44,1.15-.69,1.49-.18.27-.49.58-1.42.78h-.06v.84h.08c.48,0,.82-.03,1.15-.06ZM78.71,172.41l2.03-5.88,1.9,5.88h-3.92Z"/>
    <path class="st0" d="M102.65,163.48c-.16.56-.62.57-1.31.59h-.13s-3.2.05-4.71.05-4.63-.05-4.67-.05c-.62,0-1.04-.1-1.04-.57v-.08h-.65l-.53,4.59.8.17.02-.06c.73-2.04,1.34-2.78,2.35-2.83l2.29-.09v10.76c0,1.07-.05,1.6-.35,1.94-.32.32-.72.45-1.79.56h-.07v.85h.08c.64,0,1.22-.03,1.78-.06.56-.03,1.14-.06,1.77-.06s1.21.03,1.77.06c.56.03,1.14.06,1.78.06h.07v-.86h-.07c-1.09-.12-1.48-.22-1.79-.56-.28-.3-.33-.86-.33-1.92v-10.76l2.15.09c1.21.04,1.85.49,1.99,2.78v.07h.82l.43-4.72h-.67l-.02.05Z"/>
    <path class="st0" d="M108.11,179.25c.57-.03,1.16-.06,1.73-.06s1.17.03,1.74.06c.57.03,1.16.06,1.71.06h.12v-.86h-.07c-.92-.12-1.41-.23-1.72-.56-.28-.32-.33-.77-.33-1.88v-8.68c0-1.09.03-1.6.31-1.95.28-.34.83-.46,1.57-.53h.07v-.82h-.07c-.56,0-1.13.02-1.69.05-.55.02-1.12.05-1.68.05s-1.11-.02-1.64-.05c-.54-.02-1.09-.05-1.65-.05h-.07v.82h.07c.78.07,1.31.19,1.57.56.29.35.33.86.33,1.95v8.61c0,1.08-.05,1.62-.35,1.94-.3.32-.66.42-1.67.56h-.06v.85h.07c.56,0,1.14-.03,1.7-.06Z"/>
    <path class="st0" d="M131.8,171.51c0-4.61-3.26-7.83-7.92-7.83s-7.66,3.34-7.66,8.13,3.25,7.85,7.9,7.85,7.69-3.35,7.69-8.15ZM123.72,164.81c2.28,0,4.73,2.23,4.73,7.12,0,5.4-2.26,6.54-4.15,6.54-2.29,0-4.75-2.23-4.75-7.12,0-5.4,2.27-6.54,4.17-6.54Z"/>
    <path class="st0" d="M147.08,179.79l1.33-.45v-.06s-.17-2.15-.14-4.05l.09-8.01c.02-1.05.05-1.57.35-1.87.3-.3.78-.4,1.56-.49v-.07s.02,0,.02,0v-.75h-.07c-.54,0-.99.02-1.43.05-.44.02-.85.05-1.36.05s-.91-.02-1.35-.05c-.43-.02-.87-.05-1.42-.05h-.07v.81h.07c.75.09,1.31.18,1.65.5.35.3.41.83.44,1.89l.11,7.93-6.82-9.39c-.47-.63-1.01-1.41-1.15-1.7l-.02-.05h-.05s-1.47.1-2.27.1c-.41,0-.77-.02-1.11-.05-.34-.02-.7-.05-1.09-.05h-.07v.81h.06c.77.14,1.21.32,1.49.6.2.18.44.55.44,1.27l-.12,9.4c0,1.05-.03,1.51-.3,1.83-.31.31-.77.42-1.63.54h-.07v.85h.07c.55,0,.97-.03,1.37-.06.41-.03.83-.06,1.39-.06s1.01.03,1.45.06c.44.03.9.06,1.46.06h.07v-.86h-.07c-1-.1-1.42-.22-1.72-.5-.34-.34-.4-.85-.4-1.87l-.14-8.98,7.36,10.11c.82,1.14,1.81,2.3,2.05,2.54l.03.03Z"/>
    <path class="st0" d="M165.23,177.9c-.26-.22-.46-.56-.7-1.15l-3.41-9.91c-.29-.8-.8-2.33-.93-3v-.08s-.09.02-.09.02c-.64.14-2.39.37-2.41.37h-.05s-.01.06-.01.06c-.17.75-.52,1.77-.83,2.66l-3.43,9.31v.03c-.15.37-.44,1.15-.69,1.49-.18.27-.49.58-1.42.78h-.06v.84h.07c.48,0,.82-.03,1.15-.06.34-.03.68-.06,1.17-.06s.92.03,1.34.06c.42.03.86.06,1.35.06h.07v-.86h-.07c-1.37-.13-1.65-.51-1.65-1.07,0-.34.16-.96.25-1.21l.86-2.46h4.79l.75,2.45c.02.05.03.11.05.17.1.3.24.76.24,1.04,0,.6-.45.89-1.68,1.09h-.06v.85h.07c.56,0,1.13-.03,1.69-.06.57-.03,1.15-.06,1.72-.06s1.1.03,1.61.06c.49.03.95.06,1.45.06h.07v-.86h-.06c-.51-.1-.93-.29-1.19-.55ZM160.16,172.41h-3.92l2.03-5.88,1.9,5.88Z"/>
    <path class="st0" d="M180.58,179.31h.06l.99-4.38v-.06s-.88-.32-.88-.32l-.03.06c-.96,2.09-1.79,3.3-3.25,3.3h-2.46c-.92,0-1.06-.29-1.06-1.29v-9.28c0-1.09.03-1.6.31-1.95.3-.36.82-.46,1.73-.53h.07v-.82h-.07c-.58,0-1.17.02-1.74.05-.56.02-1.13.05-1.7.05s-1.14-.02-1.7-.05c-.55-.02-1.11-.05-1.67-.05h-.07v.82h.07c.76.08,1.32.19,1.57.54.28.35.33.89.33,1.97v8.61c0,1.08-.05,1.62-.35,1.94-.3.32-.72.41-1.67.56h-.06v.85h.07c.54,0,1.13-.03,1.7-.06.58-.03,1.19-.06,1.76-.06.44,0,1.32.02,2.44.04,1.74.03,3.92.08,5.62.08Z"/>
    <path class="st0" d="M219.15,179.31h.07v-.86h-.07c-1.37-.13-1.65-.51-1.65-1.07,0-.34.16-.96.25-1.21l.86-2.46h4.79l.75,2.45c.02.05.03.11.05.17.1.3.24.76.24,1.04,0,.6-.45.89-1.68,1.09h-.06v.85h.07c.56,0,1.13-.03,1.69-.06.57-.03,1.15-.06,1.72-.06s1.1.03,1.61.06c.49.03.95.06,1.45.06h.07v-.86h-.06c-.51-.1-.93-.29-1.19-.55-.26-.22-.46-.56-.7-1.15l-3.41-9.91c-.29-.8-.8-2.33-.93-3v-.08s-.09.02-.09.02c-.64.14-2.39.37-2.41.37h-.05s-.01.06-.01.06c-.17.75-.52,1.77-.83,2.66l-3.43,9.31v.03c-.15.37-.44,1.15-.69,1.49-.18.27-.49.58-1.42.78h-.06v.84h.07c.48,0,.82-.03,1.15-.06.34-.03.68-.06,1.17-.06s.92.03,1.34.06c.42.03.86.06,1.35.06ZM219.09,172.41l2.03-5.88,1.9,5.88h-3.92Z"/>
    <path class="st0" d="M233.6,179.26c.61-.03,1.23-.06,1.82-.06s1.1.03,1.66.06c.56.03,1.15.06,1.77.06h.07v-.86h-.07c-1.18-.12-1.46-.24-1.76-.56-.28-.32-.33-.88-.33-1.92v-10.12c0-.39.04-.59.14-.71.11-.09.26-.12.67-.12,1.27,0,3.41.44,3.41,3.36,0,2.62-1.2,3.55-2.22,3.55-.61,0-.95-.17-1.06-.22l-.07-.04-.34.76.06.03c.26.16,1,.48,1.92.48s2.3-.3,3.25-1.13c1.09-.96,1.63-2.12,1.63-3.56,0-2.61-2.06-4.23-5.37-4.23-.77,0-1.37.03-1.95.06-.5.03-.97.05-1.49.05-.57,0-1.13-.02-1.67-.05-.54-.02-1.09-.05-1.65-.05h-.07v.82h.07c.78.08,1.32.19,1.57.56.28.35.33.88.33,1.95v8.63c0,1.07-.05,1.6-.35,1.92-.3.32-.66.42-1.67.56h-.06v.85h.07c.52,0,1.09-.03,1.68-.06Z"/>
    <path class="st0" d="M252,177.89c-.28-.32-.33-.77-.33-1.88v-8.68c0-1.09.03-1.6.31-1.95.28-.34.83-.46,1.57-.53h.07v-.82h-.07c-.56,0-1.13.02-1.69.05-.55.02-1.12.05-1.68.05s-1.11-.02-1.64-.05c-.54-.02-1.09-.05-1.65-.05h-.07v.82h.07c.78.07,1.31.19,1.57.56.29.35.33.86.33,1.95v8.61c0,1.08-.05,1.62-.35,1.94-.3.32-.66.42-1.67.56h-.06v.85h.07c.56,0,1.14-.03,1.7-.06.57-.03,1.16-.06,1.73-.06s1.17.03,1.74.06c.57.03,1.16.06,1.71.06h.12v-.86h-.07c-.92-.12-1.41-.23-1.72-.56Z"/>
    <path class="st0" d="M262.08,165.2v10.76c0,1.07-.05,1.6-.35,1.94-.32.32-.72.45-1.79.56h-.07v.85h.07c.64,0,1.22-.03,1.78-.06.56-.03,1.14-.06,1.77-.06s1.21.03,1.77.06c.56.03,1.14.06,1.78.06h.07v-.86h-.07c-1.09-.12-1.48-.22-1.79-.56-.28-.3-.33-.86-.33-1.92v-10.76l2.15.09c1.21.04,1.85.49,1.99,2.78v.07h.82l.43-4.72h-.67l-.02.05c-.16.56-.62.57-1.31.59h-.13s-3.2.05-4.71.05-4.63-.05-4.67-.05c-.62,0-1.04-.1-1.04-.57v-.08h-.65l-.53,4.59.8.17.02-.06c.73-2.04,1.34-2.78,2.35-2.83l2.29-.09Z"/>
    <path class="st0" d="M275.69,179.31v-.86h-.07c-1.37-.13-1.65-.51-1.65-1.07,0-.34.16-.96.25-1.21l.86-2.46h4.79l.75,2.45c.02.05.03.11.05.17.1.3.24.76.24,1.04,0,.6-.45.89-1.68,1.09h-.06v.85h.07c.56,0,1.13-.03,1.69-.06.57-.03,1.15-.06,1.72-.06s1.1.03,1.61.06c.49.03.95.06,1.45.06h.07v-.86h-.06c-.51-.1-.93-.29-1.19-.55-.26-.22-.46-.56-.7-1.15l-3.41-9.91c-.29-.8-.8-2.33-.93-3v-.08s-.09.02-.09.02c-.64.14-2.39.37-2.41.37h-.05s-.01.06-.01.06c-.17.75-.52,1.77-.83,2.66l-3.43,9.31v.03c-.15.37-.44,1.15-.69,1.49-.18.27-.49.58-1.42.78h-.06v.84h.07c.48,0,.82-.03,1.15-.06.34-.03.68-.06,1.17-.06s.92.03,1.34.06c.42.03.86.06,1.35.06h.07ZM275.56,172.41l2.03-5.88,1.9,5.88h-3.92Z"/>
    <path class="st0" d="M299.9,179.31h.06l.99-4.38v-.06s-.88-.32-.88-.32l-.03.06c-.96,2.09-1.79,3.3-3.25,3.3h-2.46c-.92,0-1.06-.29-1.06-1.29v-9.28c0-1.09.03-1.6.31-1.95.3-.36.82-.46,1.73-.53h.07v-.82h-.07c-.58,0-1.17.02-1.74.05-.56.02-1.13.05-1.7.05s-1.14-.02-1.7-.05c-.55-.02-1.11-.05-1.67-.05h-.07v.82h.07c.76.08,1.32.19,1.57.54.28.35.33.89.33,1.97v8.61c0,1.08-.05,1.62-.35,1.94-.3.32-.72.41-1.67.56h-.06v.85h.07c.54,0,1.13-.03,1.7-.06.58-.03,1.19-.06,1.76-.06.44,0,1.32.02,2.44.04,1.74.03,3.92.08,5.62.08Z"/>
    <path class="st0" d="M341.49,163.68c-4.51,0-7.66,3.34-7.66,8.13s3.25,7.85,7.9,7.85,7.69-3.35,7.69-8.15-3.26-7.83-7.92-7.83ZM341.33,164.81c2.28,0,4.73,2.23,4.73,7.12,0,5.4-2.26,6.54-4.15,6.54-2.29,0-4.75-2.23-4.75-7.12,0-5.4,2.27-6.54,4.17-6.54Z"/>
    <path class="st0" d="M366.12,176.48c.02,1.7-.1,1.85-1.7,1.99h-.07v.85h.07c.54,0,1.09-.03,1.62-.06.54-.03,1.09-.06,1.65-.06s1.12.03,1.67.06c.54.03,1.1.06,1.65.06h.07v-.86h-.07c-1.65-.17-1.95-.33-2.02-1.98l-.33-9.33c-.05-1.83.17-2.11,1.77-2.29h.07v-.82h-.07c-.43,0-.85.02-1.25.05-.4.02-.81.05-1.24.05-.91,0-2.2-.07-2.5-.09h-.07s0,.07,0,.07c0,0-.07.74-.39,1.53l-3.81,9.44-3.81-9.5c-.19-.48-.32-1.06-.38-1.33-.01-.06-.02-.11-.03-.14v-.06s-.35.02-.35.02c-.56.03-1.49.08-2.21.08-.44,0-.85-.02-1.25-.05-.4-.02-.81-.05-1.26-.05h-.07v.81h.07c.94.11,1.39.42,1.59.59.24.2.37.46.41.82l-.79,9.86c-.14,1.87-.6,2.21-2.02,2.34h-.07v.85h.07c.53,0,.96-.03,1.37-.06.42-.03.84-.06,1.36-.06s.95.03,1.36.06c.42.03.85.06,1.37.06h.07v-.86h-.07c-1.75-.14-2.06-.51-1.95-2.32l.54-8.72,3.82,9.31c.5,1.24,1.02,2.65,1.02,2.67l.02.05h.96l.02-.05s.54-1.54,1.09-2.85l3.85-9.46.18,9.41Z"/>
    <path class="st0" d="M390.41,179.2c.56,0,1.12.03,1.67.06.54.03,1.1.06,1.65.06h.07v-.86h-.07c-1.65-.17-1.95-.33-2.02-1.98l-.33-9.33c-.05-1.83.17-2.11,1.77-2.29h.07v-.82h-.07c-.43,0-.85.02-1.25.05-.4.02-.81.05-1.24.05-.91,0-2.2-.07-2.5-.09h-.07s0,.07,0,.07c0,0-.07.74-.39,1.53l-3.81,9.44-3.81-9.5c-.19-.48-.32-1.06-.38-1.33-.01-.06-.02-.11-.03-.14v-.06s-.35.02-.35.02c-.56.03-1.49.08-2.21.08-.44,0-.85-.02-1.25-.05-.4-.02-.81-.05-1.26-.05h-.07v.81h.07c.94.11,1.39.42,1.59.59.24.2.37.46.41.82l-.79,9.86c-.14,1.87-.6,2.21-2.02,2.34h-.07v.85h.07c.53,0,.96-.03,1.37-.06.42-.03.84-.06,1.36-.06s.95.03,1.36.06c.42.03.85.06,1.37.06h.07v-.86h-.07c-1.75-.14-2.06-.51-1.95-2.32l.54-8.72,3.82,9.31c.5,1.24,1.02,2.65,1.02,2.67l.02.05h.96l.02-.05s.54-1.54,1.09-2.85l3.85-9.46.18,9.41c.02,1.7-.1,1.85-1.7,1.99h-.07v.85h.07c.54,0,1.09-.03,1.62-.06.54-.03,1.09-.06,1.65-.06Z"/>
    <path class="st0" d="M398.76,179.25c.57-.03,1.16-.06,1.73-.06s1.17.03,1.74.06c.57.03,1.16.06,1.71.06h.12v-.86h-.07c-.92-.12-1.41-.23-1.72-.56-.28-.32-.33-.77-.33-1.88v-8.68c0-1.09.03-1.6.31-1.95.28-.34.83-.46,1.57-.53h.07v-.82h-.07c-.56,0-1.13.02-1.69.05-.55.02-1.12.05-1.68.05s-1.11-.02-1.64-.05c-.54-.02-1.09-.05-1.65-.05h-.07v.82h.07c.78.07,1.31.19,1.57.56.29.35.33.86.33,1.95v8.61c0,1.08-.05,1.62-.35,1.94-.3.32-.66.42-1.67.56h-.06v.85h.07c.56,0,1.14-.03,1.7-.06Z"/>
    <path class="st0" d="M411.77,178.42c-1.15,0-2.62-1.07-3.32-4.07l-.02-.07-1,.13.26,3.77.02.02c.46.44,1.79,1.46,4.18,1.46,1.42,0,2.76-.48,3.67-1.32.97-.87,1.51-2.06,1.51-3.35,0-.96-.26-1.82-.78-2.55-.56-.78-1.47-1.33-2.07-1.69-.27-.16-2.12-1.26-2.13-1.28-.56-.33-1.04-.7-1.3-1-.38-.45-.55-1.01-.52-1.67.07-1.27,1.27-1.95,2.36-1.95,1.65,0,2.63,1.08,2.9,3.21v.08s.89-.14.89-.14l.12-3.22v-.05s-.04-.02-.04-.02c-1.02-.65-2.38-1.01-3.82-1.01s-2.48.31-3.36.94c-1.08.73-1.7,1.88-1.7,3.15-.02,1.06.3,1.95.97,2.72.51.63,1.2,1.07,1.81,1.43l2.07,1.21c.67.39,1.15.8,1.46,1.25.32.48.45.95.45,1.58-.02.68-.28,1.32-.7,1.74-.46.46-1.11.7-1.92.7Z"/>
    <path class="st0" d="M429.1,178.34c.97-.87,1.51-2.06,1.51-3.35,0-.96-.26-1.82-.78-2.55-.56-.78-1.47-1.33-2.07-1.69-.27-.16-2.12-1.26-2.13-1.28-.56-.33-1.04-.7-1.3-1-.38-.45-.55-1.01-.52-1.67.07-1.27,1.27-1.95,2.36-1.95,1.65,0,2.63,1.08,2.9,3.21v.08s.89-.14.89-.14l.12-3.22v-.05s-.04-.02-.04-.02c-1.02-.65-2.38-1.01-3.82-1.01s-2.48.31-3.36.94c-1.08.73-1.7,1.88-1.7,3.15-.02,1.06.3,1.95.97,2.72.51.63,1.2,1.07,1.81,1.43l2.07,1.21c.67.39,1.15.8,1.46,1.25.32.48.45.95.45,1.58-.02.68-.28,1.32-.7,1.74-.46.46-1.11.7-1.92.7-1.15,0-2.62-1.07-3.32-4.07l-.02-.07-1,.13.26,3.77.02.02c.46.44,1.79,1.46,4.18,1.46,1.42,0,2.76-.48,3.67-1.32Z"/>
    <path class="st0" d="M440.72,179.31h.12v-.86h-.07c-.92-.12-1.41-.23-1.72-.56-.28-.32-.33-.77-.33-1.88v-8.68c0-1.09.03-1.6.31-1.95.28-.34.83-.46,1.57-.53h.07v-.82h-.07c-.56,0-1.13.02-1.69.05-.55.02-1.12.05-1.68.05s-1.11-.02-1.64-.05c-.54-.02-1.09-.05-1.65-.05h-.07v.82h.07c.78.07,1.31.19,1.57.56.29.35.33.86.33,1.95v8.61c0,1.08-.05,1.62-.35,1.94-.3.32-.66.42-1.67.56h-.06v.85h.07c.56,0,1.14-.03,1.7-.06.57-.03,1.16-.06,1.73-.06s1.17.03,1.74.06c.57.03,1.16.06,1.71.06Z"/>
    <path class="st0" d="M459.23,171.51c0-4.61-3.26-7.83-7.92-7.83s-7.66,3.34-7.66,8.13,3.25,7.85,7.9,7.85,7.69-3.35,7.69-8.15ZM451.15,164.81c2.28,0,4.73,2.23,4.73,7.12,0,5.4-2.26,6.54-4.15,6.54-2.29,0-4.75-2.23-4.75-7.12,0-5.4,2.27-6.54,4.17-6.54Z"/>
    <path class="st0" d="M467.31,179.31h.07v-.86h-.07c-1-.1-1.42-.22-1.72-.5-.34-.34-.4-.85-.4-1.87l-.14-8.98,7.36,10.11c.82,1.14,1.81,2.3,2.05,2.54l.03.03,1.33-.45v-.06s-.17-2.15-.14-4.05l.09-8.01c.02-1.05.05-1.57.35-1.87.3-.3.78-.4,1.56-.49v-.07s.02,0,.02,0v-.75h-.07c-.54,0-.99.02-1.43.05-.44.02-.85.05-1.36.05s-.91-.02-1.35-.05c-.43-.02-.87-.05-1.42-.05h-.07v.81h.07c.75.09,1.31.18,1.65.5.35.3.41.83.44,1.89l.11,7.93-6.82-9.39c-.47-.63-1.01-1.41-1.15-1.7l-.02-.05h-.05s-1.47.1-2.27.1c-.41,0-.77-.02-1.11-.05-.34-.02-.7-.05-1.09-.05h-.07v.81h.06c.77.14,1.21.32,1.49.6.2.18.44.55.44,1.27l-.12,9.4c0,1.05-.03,1.51-.3,1.83-.31.31-.77.42-1.63.54h-.07v.85h.07c.55,0,.97-.03,1.37-.06.41-.03.83-.06,1.39-.06s1.01.03,1.45.06c.44.03.9.06,1.46.06Z"/>
    <path class="st0" d="M58.94,178.29l-.17-.02c-1.34-.18-1.79-.29-2.19-.69s-.39-.94-.39-2.41l-.2-11.78,10.02,13.52c1.27,1.72,2.55,3.06,2.56,3.07l.1.1,1.24-.56v-.14c-.03-.29-.22-2.87-.22-5.37l.12-10.18c0-1.47,0-2.13.39-2.53.4-.4.96-.52,2.04-.66l.17-.02v-1.12h-.2c-.66,0-1.22.04-1.76.08v.07h0v-.07c-.54.04-1.08.07-1.69.07-.65,0-1.2-.04-1.74-.08-.53-.04-1.08-.07-1.71-.07h-.2v1.15l.18.02c1.15.12,1.7.24,2.13.66.35.35.36.94.38,2.12l.15,11.14-9.31-12.53c-.09-.13-.19-.26-.29-.39l-.04-.06c-.46-.63-.99-1.34-1.3-2l-.06-.13h-.14c-.06.02-1.58.16-2.43.16-.44,0-.86-.04-1.26-.07-.41-.04-.83-.08-1.28-.08h-.2v1.14l.17.03c1.24.19,1.69.43,1.99.72.15.15.51.62.51,1.66l-.12,12.13c0,1.47,0,2.01-.39,2.41-.41.42-.99.55-2.13.69l-.17.02v1.15h.2c.67,0,1.22-.04,1.75-.07h.03c.5-.04,1.07-.08,1.75-.08s1.24.04,1.74.07h.02c.53.04,1.07.08,1.74.08h.2v-1.15Z"/>
    <path class="st0" d="M210.98,173.33h0c-.55,1.47-2.3,4.9-6.46,4.9-3.9,0-6.42-3.48-6.42-8.87,0-6.13,3.3-8.87,6.57-8.87,3.08,0,4.98,1.69,5.65,5.02l.04.19,1.11-.18-.16-4.79-.08-.06s-2.33-1.62-6.4-1.62c-2.62,0-5.2.98-7.06,2.7-2.07,1.91-3.17,4.55-3.17,7.62,0,6.47,3.86,10.5,10.08,10.5,4.07,0,6.04-1.74,6.12-1.82l.04-.04,1.4-4.35.02-.07-1.2-.43-.07.18Z"/>
    <path class="st0" d="M330.11,178.04l.04-.04,1.4-4.35.02-.07-1.2-.43-.07.18c-.55,1.47-2.3,4.9-6.46,4.9-3.9,0-6.42-3.48-6.42-8.87,0-6.13,3.3-8.87,6.57-8.87,3.08,0,4.98,1.69,5.65,5.02l.04.19,1.11-.18-.16-4.79-.08-.06s-2.33-1.62-6.4-1.62c-2.62,0-5.2.98-7.06,2.7-2.07,1.91-3.17,4.55-3.17,7.62,0,6.47,3.86,10.5,10.08,10.5,4.07,0,6.04-1.74,6.12-1.82Z"/>
  </g>
  <g>
    <path class="st0" d="M16.39,142.78c-.55,1.47-2.3,4.9-6.46,4.9-3.9,0-6.42-3.48-6.42-8.87,0-6.13,3.3-8.87,6.57-8.87,3.08,0,4.98,1.69,5.65,5.02l.04.19,1.11-.18-.16-4.79-.08-.06s-2.36-1.62-6.4-1.62c-2.62,0-5.2.98-7.06,2.7-2.07,1.91-3.17,4.55-3.17,7.62,0,6.47,3.86,10.5,10.08,10.5,4.07,0,6.04-1.74,6.12-1.82l.04-.04,1.4-4.35.02-.07-1.2-.43-.07.18Z"/>
    <path class="st0" d="M27.58,133.13c-4.51,0-7.66,3.34-7.66,8.13s3.25,7.85,7.9,7.85,7.69-3.35,7.69-8.15-3.26-7.83-7.92-7.83ZM27.42,134.26c2.28,0,4.73,2.23,4.73,7.12,0,5.4-2.26,6.54-4.15,6.54-2.29,0-4.75-2.23-4.75-7.12,0-5.4,2.27-6.54,4.17-6.54Z"/>
    <path class="st0" d="M55.1,145.92l-.33-9.33c-.05-1.83.17-2.11,1.77-2.29h.07v-.82h-.08c-.43,0-.85.02-1.25.05-.4.02-.81.05-1.24.05-.91,0-2.21-.07-2.5-.09h-.07s0,.07,0,.07c0,0-.07.74-.39,1.53l-3.81,9.44-3.81-9.5c-.19-.48-.32-1.06-.38-1.33-.01-.06-.02-.11-.03-.14l-.02-.06-.33.02c-.56.03-1.49.08-2.21.08-.44,0-.85-.02-1.25-.05-.4-.02-.81-.05-1.26-.05h-.08v.81h.07c.94.11,1.39.42,1.59.59.24.2.37.46.41.82l-.79,9.86c-.14,1.87-.6,2.21-2.02,2.34h-.07v.85h.08c.53,0,.96-.03,1.38-.06.42-.03.84-.06,1.36-.06s.95.03,1.36.06c.42.03.85.06,1.37.06h.08v-.86h-.07c-1.75-.14-2.06-.51-1.95-2.32l.54-8.72,3.82,9.31c.5,1.24,1.02,2.65,1.02,2.67l.02.05h.96l.02-.05s.54-1.54,1.09-2.85l3.85-9.46.18,9.41c.02,1.7-.1,1.85-1.69,1.99h-.07v.85h.08c.54,0,1.09-.03,1.62-.06.54-.03,1.09-.06,1.65-.06s1.12.03,1.67.06c.54.03,1.1.06,1.65.06h.08v-.86h-.07c-1.65-.17-1.95-.33-2.02-1.98Z"/>
    <path class="st0" d="M77.8,145.92l-.33-9.33c-.05-1.83.17-2.11,1.77-2.29h.07v-.82h-.08c-.43,0-.85.02-1.25.05-.4.02-.81.05-1.24.05-.91,0-2.21-.07-2.5-.09h-.07s0,.07,0,.07c0,0-.07.74-.39,1.53l-3.81,9.44-3.81-9.5c-.19-.48-.32-1.06-.38-1.33-.01-.06-.02-.11-.03-.14l-.02-.06-.33.02c-.56.03-1.49.08-2.21.08-.44,0-.85-.02-1.25-.05-.4-.02-.81-.05-1.26-.05h-.08v.81h.07c.94.11,1.39.42,1.59.59.24.2.37.46.41.82l-.79,9.86c-.14,1.87-.6,2.21-2.02,2.34h-.07v.85h.08c.53,0,.96-.03,1.38-.06.42-.03.84-.06,1.36-.06s.95.03,1.36.06c.42.03.85.06,1.37.06h.08v-.86h-.07c-1.75-.14-2.06-.51-1.95-2.32l.54-8.72,3.82,9.31c.5,1.24,1.02,2.65,1.02,2.67l.02.05h.96l.02-.05s.54-1.54,1.09-2.85l3.85-9.46.18,9.41c.02,1.7-.1,1.85-1.69,1.99h-.07v.85h.08c.54,0,1.09-.03,1.62-.06.54-.03,1.09-.06,1.65-.06s1.12.03,1.67.06c.54.03,1.1.06,1.65.06h.08v-.86h-.07c-1.65-.17-1.95-.33-2.02-1.98Z"/>
    <path class="st0" d="M88.38,147.34c-.28-.32-.33-.77-.33-1.88v-8.68c0-1.09.03-1.6.31-1.95s.83-.46,1.57-.53h.07v-.82h-.08c-.56,0-1.13.02-1.69.05-.55.02-1.12.05-1.68.05s-1.11-.02-1.64-.05c-.54-.02-1.09-.05-1.65-.05h-.08v.82h.07c.78.07,1.31.19,1.57.56.29.35.33.86.33,1.95v8.61c0,1.08-.05,1.62-.35,1.94-.3.32-.66.42-1.67.56h-.06v.85h.08c.56,0,1.14-.03,1.7-.06.57-.03,1.16-.06,1.73-.06s1.17.03,1.74.06c.57.03,1.16.06,1.71.06h.12v-.86h-.07c-.92-.12-1.41-.23-1.72-.56Z"/>
    <path class="st0" d="M100.34,140.2c-.27-.16-2.12-1.26-2.13-1.28-.56-.33-1.04-.7-1.3-1-.38-.45-.55-1.01-.52-1.67.07-1.27,1.27-1.95,2.36-1.95,1.65,0,2.63,1.08,2.9,3.21v.08s.89-.14.89-.14l.12-3.22v-.05s-.04-.02-.04-.02c-1.02-.65-2.38-1.01-3.82-1.01s-2.48.31-3.36.94c-1.08.73-1.7,1.88-1.7,3.15-.02,1.06.3,1.95.97,2.72.51.63,1.2,1.07,1.81,1.43l2.07,1.21c.67.39,1.15.8,1.46,1.25.32.48.45.95.45,1.58-.02.68-.28,1.32-.7,1.74-.46.46-1.11.7-1.92.7-1.15,0-2.62-1.07-3.32-4.07l-.02-.07-1,.13.26,3.77.02.02c.46.44,1.79,1.46,4.18,1.46,1.42,0,2.76-.48,3.67-1.32.97-.87,1.51-2.06,1.51-3.35,0-.96-.26-1.82-.78-2.55-.56-.78-1.47-1.33-2.07-1.69Z"/>
    <path class="st0" d="M113.86,140.2c-.27-.16-2.12-1.26-2.13-1.28-.56-.33-1.04-.7-1.3-1-.38-.45-.55-1.01-.52-1.67.07-1.27,1.27-1.95,2.36-1.95,1.65,0,2.63,1.08,2.9,3.21v.08s.89-.14.89-.14l.12-3.22v-.05s-.04-.02-.04-.02c-1.02-.65-2.38-1.01-3.82-1.01s-2.48.31-3.36.94c-1.08.73-1.7,1.88-1.7,3.15-.02,1.06.3,1.95.97,2.72.51.63,1.2,1.07,1.81,1.43l2.07,1.21c.67.39,1.15.8,1.46,1.25.32.48.45.95.45,1.58-.02.68-.28,1.32-.7,1.74-.46.46-1.11.7-1.92.7-1.15,0-2.62-1.07-3.32-4.07l-.02-.07-1,.13.26,3.77.02.02c.46.44,1.79,1.46,4.18,1.46,1.42,0,2.76-.48,3.67-1.32.97-.87,1.51-2.06,1.51-3.35,0-.96-.26-1.82-.78-2.55-.56-.78-1.47-1.33-2.07-1.69Z"/>
    <path class="st0" d="M125.15,147.34c-.28-.32-.33-.77-.33-1.88v-8.68c0-1.09.03-1.6.31-1.95.28-.34.83-.46,1.57-.53h.07v-.82h-.07c-.56,0-1.13.02-1.69.05-.55.02-1.12.05-1.68.05s-1.11-.02-1.64-.05c-.54-.02-1.09-.05-1.65-.05h-.07v.82h.07c.78.07,1.31.19,1.57.56.29.35.33.86.33,1.95v8.61c0,1.08-.05,1.62-.35,1.94-.3.32-.66.42-1.67.56h-.06v.85h.07c.56,0,1.14-.03,1.7-.06.57-.03,1.16-.06,1.73-.06s1.17.03,1.74.06c.57.03,1.16.06,1.71.06h.12v-.86h-.07c-.92-.12-1.41-.23-1.72-.56Z"/>
    <path class="st0" d="M137.4,133.13c-4.51,0-7.66,3.34-7.66,8.13s3.25,7.85,7.9,7.85,7.69-3.35,7.69-8.15-3.26-7.83-7.92-7.83ZM137.24,134.26c2.28,0,4.73,2.23,4.73,7.12,0,5.4-2.26,6.54-4.15,6.54-2.29,0-4.75-2.23-4.75-7.12,0-5.4,2.27-6.54,4.17-6.54Z"/>
    <path class="st0" d="M162.3,133.53c-.44.02-.85.05-1.36.05s-.91-.02-1.35-.05c-.43-.02-.87-.05-1.42-.05h-.07v.81h.07c.75.09,1.31.18,1.65.5.35.3.41.83.44,1.89l.11,7.93-6.82-9.39c-.47-.63-1.01-1.41-1.15-1.7l-.02-.05h-.05s-1.47.1-2.27.1c-.41,0-.77-.02-1.11-.05-.34-.02-.7-.05-1.09-.05h-.07v.81h.06c.77.14,1.21.32,1.49.6.2.18.44.55.44,1.27l-.12,9.4c0,1.05-.03,1.51-.3,1.83-.31.31-.77.42-1.63.54h-.07v.85h.07c.55,0,.97-.03,1.37-.06.41-.03.83-.06,1.39-.06s1.01.03,1.45.06c.44.03.9.06,1.46.06h.07v-.86h-.07c-1-.1-1.42-.22-1.72-.5-.34-.34-.4-.85-.4-1.87l-.14-8.98,7.36,10.11c.82,1.14,1.81,2.3,2.05,2.54l.03.03,1.33-.45v-.06s-.17-2.15-.14-4.05l.09-8.01c.02-1.05.05-1.57.35-1.87.3-.3.78-.4,1.56-.49v-.07s.02,0,.02,0v-.75h-.07c-.54,0-.99.02-1.43.05Z"/>
    <path class="st0" d="M187.36,134.46c-1.64-.88-3.49-.98-4.75-.98-.81,0-1.38.03-1.93.05-.47.02-.91.04-1.43.04-.57,0-1.12-.02-1.66-.05-.54-.02-1.09-.05-1.66-.05h-.07v.82h.07c.78.07,1.31.19,1.57.53.28.37.33.84.33,1.97v8.61c0,1.14-.05,1.6-.35,1.92-.3.34-.64.44-1.67.58h-.06v.85h.07c.57,0,1.16-.03,1.72-.06.56-.03,1.15-.06,1.71-.06.51,0,.92.02,1.39.05.57.03,1.22.07,2.18.07,2.57,0,4.26-.8,5.22-1.48,2.05-1.44,3.1-3.57,3.1-6.33,0-4.03-2.64-5.88-3.78-6.49ZM181.56,134.54h.39c1.25,0,2.58.13,3.78,1.1,1.37,1.09,2.06,2.87,2.06,5.28,0,3.12-1.13,4.73-1.81,5.4-.85.85-2.14,1.3-3.73,1.3h-.46c-.83,0-1.13-.31-1.13-1.13v-10.98c0-.83.13-.97.9-.97Z"/>
    <path class="st0" d="M205.43,144.25c-1.02,2.24-1.96,3.16-3.25,3.16h-2.62c-1.04,0-1.25-.21-1.25-1.22v-4.68l2.08.07c.92.02,1.33.13,1.57.42.29.32.45.82.51,1.67v.07h.87v-.08c0-.5-.03-.94-.06-1.37-.03-.43-.06-.84-.06-1.3s.03-.86.06-1.3c.03-.43.06-.88.06-1.37v-.08h-.86v.07c-.1.78-.25,1.24-.52,1.54-.27.29-.66.39-1.57.42l-2.08.07v-4.91c0-.65.05-.76.69-.76h2.79c1.49,0,1.78.29,2.55,2.59l.02.06.82-.11-.05-3.74h-.08c-.06,0-6.15.12-8.19.12-.56,0-1.11-.02-1.64-.05-.54-.02-1.09-.05-1.65-.05h-.07v.82h.07c.78.08,1.32.19,1.57.56.28.35.33.88.33,1.95v8.63c0,1.07-.05,1.6-.35,1.92-.3.32-.72.41-1.67.56h-.06v.85h.07c.53,0,1.08-.03,1.66-.06s1.18-.06,1.76-.06c.44,0,1.37.02,2.55.04,1.85.03,4.15.08,5.85.08h.06l1.03-4.28-.9-.3-.03.06Z"/>
    <path class="st0" d="M230.19,144.06c-.96,2.09-1.79,3.3-3.25,3.3h-2.46c-.92,0-1.06-.29-1.06-1.29v-9.28c0-1.09.03-1.6.31-1.95.3-.36.82-.46,1.73-.53h.07v-.82h-.07c-.58,0-1.17.02-1.74.05-.56.02-1.13.05-1.7.05s-1.14-.02-1.7-.05c-.55-.02-1.11-.05-1.67-.05h-.07v.82h.07c.76.08,1.32.19,1.57.54.28.35.33.89.33,1.97v8.61c0,1.08-.05,1.62-.35,1.94-.3.32-.72.41-1.67.56h-.06v.85h.07c.54,0,1.13-.03,1.7-.06.58-.03,1.19-.06,1.76-.06.44,0,1.32.02,2.44.04,1.74.03,3.92.08,5.62.08h.06l.99-4.38v-.06s-.88-.32-.88-.32l-.03.06Z"/>
    <path class="st0" d="M246.78,147.35c-.26-.22-.46-.56-.7-1.15l-3.41-9.91c-.29-.8-.8-2.33-.93-3v-.08s-.09.02-.09.02c-.64.14-2.39.37-2.41.37h-.05s-.01.06-.01.06c-.17.75-.52,1.77-.83,2.66l-3.43,9.31v.03c-.15.37-.44,1.15-.69,1.49-.18.27-.49.58-1.42.78h-.06v.84h.07c.48,0,.82-.03,1.15-.06.34-.03.68-.06,1.17-.06s.92.03,1.34.06c.42.03.86.06,1.35.06h.07v-.86h-.07c-1.37-.13-1.65-.51-1.65-1.07,0-.34.16-.96.25-1.21l.86-2.46h4.79l.75,2.45c.02.05.03.11.05.17.1.3.24.76.24,1.04,0,.6-.45.89-1.68,1.09h-.06v.85h.07c.56,0,1.13-.03,1.69-.06.57-.03,1.15-.06,1.72-.06s1.1.03,1.61.06c.49.03.95.06,1.45.06h.07v-.86h-.06c-.51-.1-.93-.29-1.19-.55ZM241.71,141.86h-3.92l2.03-5.88,1.9,5.88Z"/>
    <path class="st0" d="M273.02,143.95c-.84,2.45-2.66,3.92-4.85,3.92s-4.73-1.79-4.73-6.84c0-4.69,2.39-6.79,4.75-6.79s3.62,1.29,4.22,3.93l.02.07.88-.19-.12-3.7-.04-.02s-.04-.02-.07-.04c-1.67-.97-3.6-1.17-4.93-1.17-4.64,0-8.01,3.33-8.01,7.92,0,4.98,3.07,8.08,8.01,8.08,3.43,0,4.8-1.47,4.86-1.53l.92-3.42-.88-.27-.02.07Z"/>
    <path class="st0" d="M289.37,147.35c-.26-.22-.46-.56-.7-1.15l-3.41-9.91c-.29-.8-.8-2.33-.93-3v-.08s-.09.02-.09.02c-.64.14-2.39.37-2.41.37h-.05s-.01.06-.01.06c-.17.75-.52,1.77-.83,2.66l-3.43,9.31v.03c-.15.37-.44,1.15-.69,1.49-.18.27-.49.58-1.42.78h-.06v.84h.07c.48,0,.82-.03,1.15-.06.34-.03.68-.06,1.17-.06s.92.03,1.34.06c.42.03.86.06,1.35.06h.07v-.86h-.07c-1.37-.13-1.65-.51-1.65-1.07,0-.34.16-.96.25-1.21l.86-2.46h4.79l.75,2.45c.02.05.03.11.05.17.1.3.24.76.24,1.04,0,.6-.45.89-1.68,1.09h-.06v.85h.07c.56,0,1.13-.03,1.69-.06.57-.03,1.15-.06,1.72-.06s1.1.03,1.61.06c.49.03.95.06,1.45.06h.07v-.86h-.06c-.51-.1-.93-.29-1.19-.55ZM284.3,141.86h-3.92l2.03-5.88,1.9,5.88Z"/>
    <path class="st0" d="M300.07,133.46c-.77,0-1.37.03-1.95.06-.5.03-.97.05-1.49.05-.57,0-1.13-.02-1.67-.05-.54-.02-1.09-.05-1.65-.05h-.07v.82h.07c.78.08,1.32.19,1.57.56.28.35.33.88.33,1.95v8.63c0,1.07-.05,1.6-.35,1.92-.3.32-.66.42-1.67.56h-.06v.85h.07c.52,0,1.09-.03,1.68-.06.61-.03,1.23-.06,1.82-.06s1.1.03,1.66.06c.56.03,1.15.06,1.77.06h.07v-.86h-.07c-1.18-.12-1.46-.24-1.76-.56-.28-.32-.33-.88-.33-1.92v-10.12c0-.39.04-.59.14-.71.11-.09.26-.12.67-.12,1.27,0,3.41.44,3.41,3.36,0,2.62-1.2,3.55-2.22,3.55-.61,0-.95-.17-1.06-.22l-.07-.04-.34.76.06.03c.26.16,1,.48,1.92.48s2.3-.3,3.25-1.13c1.09-.96,1.63-2.12,1.63-3.56,0-2.61-2.06-4.23-5.37-4.23Z"/>
    <path class="st0" d="M313.28,147.34c-.28-.32-.33-.77-.33-1.88v-8.68c0-1.09.03-1.6.31-1.95.28-.34.83-.46,1.57-.53h.07v-.82h-.07c-.56,0-1.13.02-1.69.05-.55.02-1.12.05-1.68.05s-1.11-.02-1.64-.05c-.54-.02-1.09-.05-1.65-.05h-.07v.82h.07c.78.07,1.31.19,1.57.56.29.35.33.86.33,1.95v8.61c0,1.08-.05,1.62-.35,1.94-.3.32-.66.42-1.67.56h-.06v.85h.07c.56,0,1.14-.03,1.7-.06.57-.03,1.16-.06,1.73-.06s1.17.03,1.74.06c.57.03,1.16.06,1.71.06h.12v-.86h-.07c-.92-.12-1.41-.23-1.72-.56Z"/>
    <path class="st0" d="M330.93,132.93c-.16.56-.62.57-1.31.59h-.13s-3.2.05-4.71.05-4.63-.05-4.67-.05c-.62,0-1.04-.1-1.04-.57v-.08h-.65l-.53,4.59.8.17.02-.06c.73-2.04,1.34-2.78,2.35-2.83l2.29-.09v10.76c0,1.07-.05,1.6-.35,1.94-.32.32-.72.45-1.79.56h-.07v.85h.07c.64,0,1.22-.03,1.78-.06.56-.03,1.14-.06,1.77-.06s1.21.03,1.77.06c.56.03,1.14.06,1.78.06h.07v-.86h-.07c-1.09-.12-1.48-.22-1.79-.56-.28-.3-.33-.86-.33-1.92v-10.76l2.15.09c1.21.04,1.85.49,1.99,2.78v.07h.82l.43-4.72h-.67l-.02.05Z"/>
    <path class="st0" d="M345.84,147.35c-.26-.22-.46-.56-.7-1.15l-3.41-9.91c-.29-.8-.8-2.33-.93-3v-.08s-.09.02-.09.02c-.64.14-2.39.37-2.41.37h-.05s-.01.06-.01.06c-.17.75-.52,1.77-.83,2.66l-3.43,9.31v.03c-.15.37-.44,1.15-.69,1.49-.18.27-.49.58-1.42.78h-.06v.84h.07c.48,0,.82-.03,1.15-.06.34-.03.68-.06,1.17-.06s.92.03,1.34.06c.42.03.86.06,1.35.06h.07v-.86h-.07c-1.37-.13-1.65-.51-1.65-1.07,0-.34.16-.96.25-1.21l.86-2.46h4.79l.75,2.45c.02.05.03.11.05.17.1.3.24.76.24,1.04,0,.6-.45.89-1.68,1.09h-.06v.85h.07c.56,0,1.13-.03,1.69-.06.57-.03,1.15-.06,1.72-.06s1.1.03,1.61.06c.49.03.95.06,1.45.06h.07v-.86h-.06c-.51-.1-.93-.29-1.19-.55ZM340.76,141.86h-3.92l2.03-5.88,1.9,5.88Z"/>
    <path class="st0" d="M361.32,144.06c-.96,2.09-1.79,3.3-3.25,3.3h-2.46c-.92,0-1.06-.29-1.06-1.29v-9.28c0-1.09.03-1.6.31-1.95.3-.36.82-.46,1.73-.53h.07v-.82h-.07c-.58,0-1.17.02-1.74.05-.56.02-1.13.05-1.7.05s-1.14-.02-1.7-.05c-.55-.02-1.11-.05-1.67-.05h-.07v.82h.07c.76.08,1.32.19,1.57.54.28.35.33.89.33,1.97v8.61c0,1.08-.05,1.62-.35,1.94-.3.32-.72.41-1.67.56h-.06v.85h.07c.54,0,1.13-.03,1.7-.06.58-.03,1.19-.06,1.76-.06.44,0,1.32.02,2.44.04,1.74.03,3.92.08,5.62.08h.06l.99-4.38v-.06s-.88-.32-.88-.32l-.03.06Z"/>
    <path class="st0" d="M376.22,144.25c-1.02,2.24-1.96,3.16-3.25,3.16h-2.62c-1.04,0-1.25-.21-1.25-1.22v-4.68l2.08.07c.92.02,1.33.13,1.57.42.29.32.45.82.51,1.67v.07h.87v-.08c0-.5-.03-.94-.06-1.37-.03-.43-.06-.84-.06-1.3s.03-.86.06-1.3c.03-.43.06-.88.06-1.37v-.08h-.86v.07c-.1.78-.25,1.24-.52,1.54-.27.29-.66.39-1.57.42l-2.08.07v-4.91c0-.65.05-.76.69-.76h2.79c1.49,0,1.78.29,2.55,2.59l.02.06.82-.11-.05-3.74h-.08c-.06,0-6.15.12-8.19.12-.56,0-1.11-.02-1.64-.05-.54-.02-1.09-.05-1.65-.05h-.07v.82h.07c.78.08,1.32.19,1.57.56.28.35.33.88.33,1.95v8.63c0,1.07-.05,1.6-.35,1.92-.3.32-.72.41-1.67.56h-.06v.85h.07c.53,0,1.08-.03,1.66-.06s1.18-.06,1.76-.06c.44,0,1.37.02,2.55.04,1.85.03,4.15.08,5.85.08h.06l1.03-4.28-.9-.3-.03.06Z"/>
    <path class="st0" d="M403.91,133.53c-.44.02-.85.05-1.36.05s-.91-.02-1.35-.05c-.43-.02-.87-.05-1.42-.05h-.07v.81h.07c.75.09,1.31.18,1.65.5.35.3.41.83.44,1.89l.11,7.93-6.82-9.39c-.47-.63-1.01-1.41-1.15-1.7l-.02-.05h-.05s-1.47.1-2.27.1c-.41,0-.77-.02-1.11-.05-.34-.02-.7-.05-1.09-.05h-.07v.81h.06c.77.14,1.21.32,1.49.6.2.18.44.55.44,1.27l-.12,9.4c0,1.05-.03,1.51-.3,1.83-.31.31-.77.42-1.63.54h-.07v.85h.07c.55,0,.97-.03,1.37-.06.41-.03.83-.06,1.39-.06s1.01.03,1.45.06c.44.03.9.06,1.46.06h.07v-.86h-.07c-1-.1-1.42-.22-1.72-.5-.34-.34-.4-.85-.4-1.87l-.14-8.98,7.36,10.11c.82,1.14,1.81,2.3,2.05,2.54l.03.03,1.33-.45v-.06s-.17-2.15-.14-4.05l.09-8.01c.02-1.05.05-1.57.35-1.87.3-.3.78-.4,1.56-.49v-.07s.02,0,.02,0v-.75h-.07c-.54,0-.99.02-1.43.05Z"/>
    <path class="st0" d="M420.39,147.35c-.26-.22-.46-.56-.7-1.15l-3.41-9.91c-.29-.8-.8-2.33-.93-3v-.08s-.09.02-.09.02c-.64.14-2.39.37-2.41.37h-.05s-.01.06-.01.06c-.17.75-.52,1.77-.83,2.66l-3.43,9.31v.03c-.15.37-.44,1.15-.69,1.49-.18.27-.49.58-1.42.78h-.06v.84h.07c.48,0,.82-.03,1.15-.06.34-.03.68-.06,1.17-.06s.92.03,1.34.06c.42.03.86.06,1.35.06h.07v-.86h-.07c-1.37-.13-1.65-.51-1.65-1.07,0-.34.16-.96.25-1.21l.86-2.46h4.79l.75,2.45c.02.05.03.11.05.17.1.3.24.76.24,1.04,0,.6-.45.89-1.68,1.09h-.06v.85h.07c.56,0,1.13-.03,1.69-.06.57-.03,1.15-.06,1.72-.06s1.1.03,1.61.06c.49.03.95.06,1.45.06h.07v-.86h-.06c-.51-.1-.93-.29-1.19-.55ZM415.32,141.86h-3.92l2.03-5.88,1.9,5.88Z"/>
    <path class="st0" d="M435.34,132.93c-.16.56-.62.57-1.31.59h-.13s-3.2.05-4.71.05-4.63-.05-4.67-.05c-.62,0-1.04-.1-1.04-.57v-.08h-.65l-.53,4.59.8.17.02-.06c.73-2.04,1.34-2.78,2.35-2.83l2.29-.09v10.76c0,1.07-.05,1.6-.35,1.94-.32.32-.72.45-1.79.56h-.07v.85h.07c.64,0,1.22-.03,1.78-.06.56-.03,1.14-.06,1.77-.06s1.21.03,1.77.06c.56.03,1.14.06,1.78.06h.07v-.86h-.07c-1.09-.12-1.48-.22-1.79-.56-.28-.3-.33-.86-.33-1.92v-10.76l2.15.09c1.21.04,1.85.49,1.99,2.78v.07h.82l.43-4.72h-.67l-.02.05Z"/>
    <path class="st0" d="M444.32,147.34c-.28-.32-.33-.77-.33-1.88v-8.68c0-1.09.03-1.6.31-1.95.28-.34.83-.46,1.57-.53h.07v-.82h-.07c-.56,0-1.13.02-1.69.05-.55.02-1.12.05-1.68.05s-1.11-.02-1.64-.05c-.54-.02-1.09-.05-1.65-.05h-.07v.82h.07c.78.07,1.31.19,1.57.56.29.35.33.86.33,1.95v8.61c0,1.08-.05,1.62-.35,1.94-.3.32-.66.42-1.67.56h-.06v.85h.07c.56,0,1.14-.03,1.7-.06.57-.03,1.16-.06,1.73-.06s1.17.03,1.74.06c.57.03,1.16.06,1.71.06h.12v-.86h-.07c-.92-.12-1.41-.23-1.72-.56Z"/>
    <path class="st0" d="M456.56,133.13c-4.51,0-7.66,3.34-7.66,8.13s3.25,7.85,7.9,7.85,7.69-3.35,7.69-8.15-3.26-7.83-7.92-7.83ZM456.4,134.26c2.28,0,4.73,2.23,4.73,7.12,0,5.4-2.26,6.54-4.15,6.54-2.29,0-4.75-2.23-4.75-7.12,0-5.4,2.27-6.54,4.17-6.54Z"/>
    <path class="st0" d="M481.46,133.53c-.44.02-.85.05-1.36.05s-.91-.02-1.35-.05c-.43-.02-.87-.05-1.42-.05h-.07v.81h.07c.75.09,1.31.18,1.65.5.35.3.41.83.44,1.89l.11,7.93-6.82-9.39c-.47-.63-1.01-1.41-1.15-1.7l-.02-.05h-.05s-1.47.1-2.27.1c-.41,0-.77-.02-1.11-.05-.34-.02-.7-.05-1.09-.05h-.07v.81h.06c.77.14,1.21.32,1.49.6.2.18.44.55.44,1.27l-.12,9.4c0,1.05-.03,1.51-.3,1.83-.31.31-.77.42-1.63.54h-.07v.85h.07c.55,0,.97-.03,1.37-.06.41-.03.83-.06,1.39-.06s1.01.03,1.45.06c.44.03.9.06,1.46.06h.07v-.86h-.07c-1-.1-1.42-.22-1.72-.5-.34-.34-.4-.85-.4-1.87l-.14-8.98,7.36,10.11c.82,1.14,1.81,2.3,2.05,2.54l.03.03,1.33-.45v-.06s-.17-2.15-.14-4.05l.09-8.01c.02-1.05.05-1.57.35-1.87.3-.3.78-.4,1.56-.49v-.07s.02,0,.02,0v-.75h-.07c-.54,0-.99.02-1.43.05Z"/>
    <path class="st0" d="M497.91,147.35c-.26-.22-.46-.56-.7-1.15l-3.41-9.91c-.29-.8-.81-2.33-.93-3v-.08s-.09.02-.09.02c-.64.14-2.39.37-2.41.37h-.05s-.01.06-.01.06c-.17.75-.52,1.77-.83,2.66l-3.43,9.31v.03c-.15.37-.44,1.15-.69,1.49-.18.27-.49.58-1.42.78h-.06v.84h.07c.48,0,.82-.03,1.15-.06.34-.03.68-.06,1.17-.06s.92.03,1.34.06c.42.03.86.06,1.35.06h.07v-.86h-.07c-1.37-.13-1.65-.51-1.65-1.07,0-.34.16-.96.25-1.21l.86-2.46h4.79l.75,2.45c.02.05.03.11.05.17.1.3.24.76.24,1.04,0,.6-.45.89-1.68,1.09h-.06v.85h.07c.56,0,1.13-.03,1.69-.06.56-.03,1.15-.06,1.72-.06s1.1.03,1.61.06c.49.03.95.06,1.45.06h.08v-.86h-.06c-.51-.1-.93-.29-1.19-.55ZM492.84,141.86h-3.92l2.03-5.88,1.9,5.88Z"/>
    <path class="st0" d="M513.4,144.06c-.96,2.09-1.79,3.3-3.25,3.3h-2.46c-.92,0-1.06-.29-1.06-1.29v-9.28c0-1.09.03-1.6.31-1.95.3-.36.82-.46,1.73-.53h.07v-.82h-.08c-.58,0-1.17.02-1.74.05-.56.02-1.13.05-1.7.05s-1.14-.02-1.7-.05c-.55-.02-1.11-.05-1.67-.05h-.08v.82h.07c.76.08,1.32.19,1.57.54.28.35.33.89.33,1.97v8.61c0,1.08-.05,1.62-.35,1.94-.3.32-.72.41-1.67.56h-.06v.85h.08c.54,0,1.13-.03,1.7-.06.58-.03,1.19-.06,1.76-.06.44,0,1.32.02,2.44.04,1.75.03,3.92.08,5.62.08h.06l1-4.44-.89-.32-.03.06Z"/>
    <path class="st0" d="M528.33,144.19l-.03.06c-1.02,2.24-1.96,3.16-3.25,3.16h-2.62c-1.04,0-1.25-.21-1.25-1.22v-4.68l2.08.07c.92.02,1.33.13,1.57.42.29.32.45.82.51,1.67v.07h.87v-.08c0-.5-.03-.94-.06-1.37-.03-.43-.06-.84-.06-1.3s.03-.86.06-1.3c.03-.43.06-.88.06-1.37v-.08h-.86v.07c-.1.78-.25,1.24-.52,1.54-.27.29-.66.39-1.57.42l-2.08.07v-4.91c0-.65.05-.76.69-.76h2.79c1.49,0,1.78.29,2.55,2.59l.02.06.82-.11-.05-3.74h-.08c-.06,0-6.15.12-8.19.12-.56,0-1.11-.02-1.64-.05-.54-.02-1.09-.05-1.65-.05h-.08v.82h.07c.78.08,1.31.19,1.57.56.28.35.33.88.33,1.95v8.63c0,1.07-.05,1.6-.35,1.92-.3.32-.72.41-1.67.56h-.06v.85h.08c.53,0,1.08-.03,1.66-.06.58-.03,1.18-.06,1.76-.06.44,0,1.37.02,2.55.04,1.85.03,4.15.08,5.85.08h.06l1.03-4.28-.9-.3Z"/>
  </g>
</svg>