<?xml version="1.0" encoding="UTF-8" standalone="no"?>
<!-- Created with Inkscape (http://www.inkscape.org/) -->

<svg
   width="250mm"
   height="250mm"
   viewBox="0 0 250 250"
   version="1.1"
   id="svg1"
   xml:space="preserve"
   inkscape:version="1.4.2 (ebf0e94, 2025-05-08)"
   sodipodi:docname="icon.svg"
   xmlns:inkscape="http://www.inkscape.org/namespaces/inkscape"
   xmlns:sodipodi="http://sodipodi.sourceforge.net/DTD/sodipodi-0.dtd"
   xmlns="http://www.w3.org/2000/svg"
   xmlns:svg="http://www.w3.org/2000/svg"><sodipodi:namedview
     id="namedview1"
     pagecolor="#ffffff"
     bordercolor="#000000"
     borderopacity="0.25"
     inkscape:showpageshadow="2"
     inkscape:pageopacity="0.0"
     inkscape:pagecheckerboard="0"
     inkscape:deskcolor="#d1d1d1"
     inkscape:document-units="mm"
     inkscape:zoom="0.52724989"
     inkscape:cx="19.914656"
     inkscape:cy="573.73175"
     inkscape:current-layer="g221" /><defs
     id="defs1" /><g
     inkscape:label="Layer 1"
     inkscape:groupmode="layer"
     id="layer1"
     transform="translate(9.28308,-12.139022)"><g
       id="g221"
       transform="translate(629.77793,-50.387101)"><path
         d="m -603.15334,62.526123 -2.10219,0.53795 -2.10272,0.53796 -2.13062,1.04024 -2.13113,1.04076 -1.66605,1.36013 -1.66605,1.36012 -1.42678,1.73013 -1.42731,1.73064 -0.9157,1.75338 c -0.50363,0.96446 -1.1956,2.58683 -1.53738,3.60547 l -0.62115,1.85208 -0.0723,107.156247 -0.0723,107.15625 0.41599,2.11667 0.416,2.11667 1.28519,2.64583 1.28468,2.64583 1.54667,1.83348 1.54616,1.83297 1.85208,1.41955 1.85209,1.42007 1.8681,0.894 c 1.02741,0.49175 2.63476,1.10092 3.57188,1.35392 l 1.70377,0.45992 2.11666,0.18087 2.11667,0.17983 82.28542,0.0372 82.28541,0.0367 3.05408,-0.25321 3.0546,-0.25321 2.31355,-0.67025 2.31355,-0.67076 1.90841,-0.96015 c 1.04945,-0.52809 2.62228,-1.43905 3.4954,-2.02468 l 1.5875,-1.06505 2.1208,-2.14044 2.12132,-2.14044 1.30638,-1.98437 1.30689,-1.98438 1.01751,-2.35024 1.01699,-2.35024 0.5824,-2.27997 0.58187,-2.27996 V 192.8453 96.536976 l -0.61288,-2.24328 c -0.33701,-1.23372 -0.97017,-3.10149 -1.40715,-4.15117 l -0.79478,-1.90892 -1.26762,-1.80144 -1.26814,-1.80144 -2.15491,-2.05466 -2.15491,-2.05517 -1.41852,-0.90692 c -0.7801,-0.49903 -2.06468,-1.22438 -2.8546,-1.61179 l -1.43609,-0.70435 -0.89349,-1.98489 c -1.76303,-3.91785 -4.05266,-6.8285 -7.06261,-8.97775 l -1.62988,-1.16375 -1.942,-0.88987 -1.942,-0.88987 -1.89084,-0.42374 -1.89136,-0.42375 -81.71697,-0.009 z m 9.39271,9.27282 h 3.30729 3.3073 V 180.27811 288.75728 h -3.3073 -3.30729 V 180.27811 Z m 171.84688,14.68438 1.90427,1.91306 0.52917,0.53175 0.83251,0.83251 0.006,0.01 0.53692,0.53951 1.07022,2.18126 0.5147,0.87126 0.34726,0.99012 c 0.41289,0.9562 0.7759,1.894 0.93845,2.44947 l 0.46457,1.5875 0.078,90.884367 0.0775,90.88438 -0.2899,2.56883 -0.13023,1.15394 v 0.51056 l -0.0982,0.35967 -0.0615,0.54467 -0.52968,1.91099 c -0.14662,0.52912 -0.32346,1.07609 -0.524,1.62988 l -0.0145,0.0527 -0.0186,0.0393 c -0.54027,1.47413 -1.2516,2.99394 -2.04174,4.35891 l -0.008,0.017 -0.009,0.0129 c -0.26147,0.45028 -0.53149,0.88395 -0.80667,1.29294 l -1.13533,1.68724 -1.89084,1.87482 -1.89084,1.87482 -1.57044,1.06557 c -1.64804,1.11795 -3.2929,1.99413 -5.07618,2.69751 l -0.0496,0.0253 -0.0718,0.0222 c -0.55349,0.21512 -1.12043,0.41399 -1.70532,0.59841 l -2.15698,0.68006 -0.31522,0.0326 -0.39791,0.12454 -0.82269,5.2e-4 -1.16375,0.11937 -2.7001,0.27699 -78.2221,-0.032 -78.22261,-0.0326 -1.57407,-0.22945 -1.57458,-0.22944 -1.80402,-0.68885 -1.80403,-0.68936 -1.03197,-0.7705 -0.50385,-0.24649 -0.85679,-0.83044 c -0.4812,-0.42331 -0.97147,-0.90106 -1.44229,-1.39837 l -1.10381,-1.07022 -0.33538,-0.58704 c -0.93666,-1.18364 -1.59287,-2.26712 -1.59474,-2.79156 l -5.1e-4,-0.20412 0.99528,0.50797 c 0.54746,0.2793 1.88693,0.78752 2.97657,1.12965 l 1.5322,0.48111 0.66405,0.14108 h 82.20273 81.88751 l 1.15755,-0.27286 c 0.18387,-0.0433 0.39268,-0.0973 0.61598,-0.15916 l 1.27021,-0.44132 2.51354,-0.87333 1.85208,-1.08417 1.58389,-0.92707 0.30954,-0.19896 2.33991,-2.36626 2.23087,-2.2562 0.48524,-0.75034 0.77515,-1.38596 0.96635,-1.72858 c 0.0811,-0.17399 0.16049,-0.34966 0.23823,-0.5271 l 0.6475,-1.84536 0.74207,-2.11667 0.1323,-97.36666 z m -87.84167,35.784377 3.43958,0.31057 3.43959,0.31006 3.24941,0.65267 3.24942,0.65216 3.62975,1.19269 3.62975,1.19321 3.43958,1.70222 c 4.12191,2.03969 7.27896,4.05846 10.86601,6.94842 l 2.66392,2.14612 2.76004,2.88096 2.76003,2.88096 1.91772,2.54145 c 6.36773,8.43792 10.151,17.86799 11.43703,28.50679 l 0.2713,2.24172 v 4.42557 4.42505 l -0.40153,3.06286 -0.40153,3.06287 -0.90072,3.49901 c -3.72407,14.46785 -12.45576,26.55356 -25.17675,34.84748 l -2.8851,1.88102 -2.91042,1.43041 c -5.40242,2.65464 -10.02142,4.15947 -15.7427,5.1294 -1.67348,0.2837 -3.48947,0.57801 -4.03542,0.65371 l -0.48472,0.0672 c -0.0874,0.0629 -0.1883,0.10335 -0.27337,0.10335 h -0.26458 l 0.13332,-0.21549 0.14883,-0.26407 c 0.13869,-0.24555 1.59829,-2.16343 3.24321,-4.26227 l 2.99052,-3.8163 2.77709,-0.85215 c 20.15183,-6.18529 34.09579,-22.62407 36.65823,-43.21597 l 0.17828,-1.42937 -3.33778,0.18552 -2.72851,0.15142 0.008,0.008 h -0.15244 l -0.46509,0.0258 v -0.0258 h -0.0884 l 0.0884,-0.0879 v -0.75913 l -5.2e-4,-0.87282 -0.84904,-1.71979 c -0.31941,-0.6468 -0.61761,-1.24803 -0.78962,-1.59267 -0.12098,-0.0242 -0.2129,-0.13158 -0.2129,-0.25941 0,-0.0395 0.009,-0.0769 0.0243,-0.11059 l -0.0465,-0.0879 0.1111,0.001 c 0.0468,-0.0415 0.10864,-0.0672 0.1757,-0.0672 0.0685,0 0.13116,0.0266 0.17828,0.0698 l 3.81786,0.0294 4.28242,0.0331 -0.0491,-2.24896 -0.0496,-2.24896 -0.37569,-2.38125 c -1.38651,-8.78518 -5.15432,-17.25695 -10.789,-24.26001 l -1.98128,-2.4629 -2.34559,-2.2562 c -5.67804,-5.46173 -11.82708,-9.2142 -19.02519,-11.61066 l -3.16415,-1.05316 -2.67116,-0.54054 c -1.46912,-0.29708 -3.90989,-0.67585 -5.42395,-0.84181 l -2.75281,-0.30179 -3.83646,0.14418 -3.83646,0.14469 -2.64583,0.43305 c -11.13965,1.82445 -20.62361,6.77826 -28.46596,14.86835 l -2.5368,2.61689 -1.85105,2.50579 c -5.42231,7.34176 -8.98395,16.29506 -9.76478,24.54631 l -0.18293,1.93218 1.29243,-0.1478 c 3.64398,-0.41666 6.55572,-0.67386 7.63209,-0.67386 h 0.84801 l 0.0884,-0.0884 0.0884,0.0884 h 0.17622 v 0.17674 l 0.0884,0.0879 h -0.0884 v 0.88728 c 0,0.6335 0.0784,1.9006 0.17415,2.81585 l 0.17363,1.66398 -5.37331,-0.1943 -5.3728,-0.19482 0.1788,2.36678 c 0.23588,3.12464 0.82987,6.7517 1.61902,9.88622 l 0.64079,2.54713 1.09244,2.74453 c 5.96537,14.98992 18.11319,26.19154 33.38762,30.78675 l 2.31098,0.69505 1.25418,1.63918 c 0.6898,0.90138 2.17977,2.76035 3.31091,4.13101 0.94903,1.15 1.5314,1.83381 1.70326,2.21485 l 0.108,0.0667 c 0.13547,0.0837 0.2465,0.20452 0.2465,0.26872 0,0.0642 -0.18551,0.11679 -0.41238,0.11679 h -0.41238 l 0.0217,-0.0357 c -0.39311,-0.007 -1.02177,-0.10204 -1.90324,-0.22221 -9.38692,-1.27976 -18.782,-5.18016 -26.87743,-11.15849 l -2.56315,-1.89291 -3.59823,-3.59771 -3.59823,-3.59823 -2.03605,-2.7466 c -5.85614,-7.90107 -9.38531,-16.24907 -11.03792,-26.10847 l -0.57412,-3.42408 -0.0186,-4.7625 -0.0186,-4.7625 0.33176,-2.51354 c 0.18247,-1.38245 0.57257,-3.70417 0.86714,-5.15938 l 0.53536,-2.64583 1.17047,-3.58428 1.17048,-3.58427 1.82831,-3.69177 1.82831,-3.69176 2.02313,-3.02462 c 2.48864,-3.72038 4.81742,-6.48485 8.38812,-9.95754 l 2.73885,-2.6634 2.57969,-1.91358 c 6.45627,-4.789 12.58012,-7.78234 19.78484,-9.67072 l 3.56464,-0.93431 2.77812,-0.41445 2.77813,-0.41393 3.70416,-0.15503 z"
         style="fill:#1c456f"
         id="path54" /><path
         d="m -486.62815,195.50922 0.6072,0.56224 c 0.33396,0.30912 1.47795,1.15889 2.54196,1.88826 l 1.57407,1.079 0.063,-0.0636 0.17622,0.17674 0.17673,0.17621 h -0.0899 l -5.9862,7.45329 c -3.31127,4.12262 -8.0015,9.93645 -10.42262,12.91963 -2.42113,2.98318 -6.39744,7.92427 -8.83615,10.98021 -2.11161,2.64603 -3.96338,4.90244 -4.49895,5.48855 l 0.0238,0.0238 0.17673,0.17622 h -0.35295 -0.14004 l -0.0729,0.0269 -0.0217,-0.0269 h -0.11834 l 0.0651,-0.0651 -2.15129,-2.63343 c -5.27564,-6.45781 -13.55123,-16.85061 -15.05076,-18.88154 l -0.0775,0.0775 -0.15968,0.15968 0.0207,-0.50695 0.002,-0.0341 c -0.0147,-0.0238 -0.0222,-0.0384 -0.0222,-0.0439 v -0.22014 l 0.0336,-0.01 0.008,-0.19947 0.0708,0.17673 1.80558,-0.52245 c 1.05502,-0.3053 2.472,-0.63195 3.14916,-0.72605 l 1.23145,-0.17105 1.41438,0.41548 1.4149,0.41599 4.10104,3.7083 c 2.25557,2.03958 4.18431,3.7094 4.28605,3.7114 0,0 5.1e-4,0 5.1e-4,0 0.003,-8.1e-4 0.01,-0.005 0.0186,-0.0114 -0.0426,-0.022 -0.0718,-0.0667 -0.0718,-0.11783 0,-0.0728 0.0595,-0.13229 0.13229,-0.13229 0.0558,0 0.10363,0.0351 0.12299,0.0842 1.05853,-1.00522 6.10169,-6.16099 12.04629,-12.32121 6.63519,-6.87585 12.23182,-12.61671 12.43697,-12.75736 z"
         style="fill:#bca160"
         id="path202" /><path
         d="m -525.03769,145.01773 0.96532,0.18138 0.82217,0.154 h 0.16433 l -0.1633,0.26458 c -0.0899,0.14552 -0.21588,0.26459 -0.28008,0.26459 -0.0228,0 -0.044,-0.015 -0.062,-0.0408 l -1.10794,1.0542 -1.59267,1.51567 v 0.59634 c 0,0.32822 -0.16748,0.99759 -0.37207,1.48725 l -0.37207,0.89038 -1.3565,0.29094 c -0.7461,0.16001 -1.81349,0.52408 -2.37247,0.80926 l -1.01647,0.51831 -1.36064,1.73168 -1.36065,1.73116 h -0.401 c -0.2205,0 -0.82841,-0.1786 -1.35083,-0.39688 -0.52242,-0.21828 -0.9968,-0.39687 -1.0542,-0.39687 -2.1e-4,2e-5 -10e-4,-4e-5 -0.002,0 0,0 -5.1e-4,5.1e-4 -5.1e-4,5.1e-4 0,0 -5.2e-4,0 -5.2e-4,0 0,0 -5.2e-4,5.2e-4 -5.2e-4,5.2e-4 0,0 -5.1e-4,0 -5.1e-4,0 0,0 -5.2e-4,5.2e-4 -5.2e-4,5.2e-4 0,0 -5.2e-4,5.1e-4 -5.2e-4,5.1e-4 0,0 -5.1e-4,5.2e-4 -5.1e-4,5.2e-4 -0.0315,0.0462 0.22438,0.65233 0.58704,1.38648 l 0.68575,1.38906 1.45107,1.32292 1.30587,1.19114 h 5.1e-4 c 0.0534,0.008 0.0965,0.0479 0.10904,0.0997 l 0.0351,0.032 -0.42685,1.19063 -0.42633,1.19062 -0.13849,1.5875 -0.13849,1.5875 0.38912,1.24954 0.38861,1.24902 -1.5627,3.03237 c -1.5794,3.06468 -3.37221,7.39584 -3.35742,8.08116 0.17829,-0.56219 0.77304,-1.83916 0.88264,-1.83916 0.0728,0 -0.0521,0.44052 -0.27699,0.97875 -0.23642,0.56582 -0.42425,0.94648 -0.53743,1.09915 l 0.0253,0.0765 1.22938,-2.2071 c 6.27097,-11.26189 13.60823,-17.14533 30.78003,-24.68014 1.88811,-0.82848 4.50443,-2.04225 5.81412,-2.69751 l 2.38125,-1.19166 1.95285,-1.49707 c 3.92043,-3.00618 3.93124,-3.01158 4.54701,-2.26963 l 0.34727,0.41807 -0.30128,1.43608 -0.30127,1.43609 -1.85932,3.76825 c -1.0227,2.07246 -3.17222,6.2085 -4.77697,9.19168 l -2.91817,5.42396 -0.45268,1.41749 -0.45321,1.41748 -1.06711,0.92294 c -0.58696,0.50758 -1.66244,1.26748 -2.39004,1.68879 l -1.32292,0.76636 -0.82113,0.002 -0.82114,0.002 0.11369,1.38906 c 0.0624,0.76398 0.16974,1.56343 0.23874,1.77612 l 0.12557,0.38654 0.66818,-1.18029 c 0.36737,-0.64925 0.90658,-1.4365 1.19838,-1.74925 l 0.5302,-0.56844 1.57303,-0.7059 1.57251,-0.7059 0.5824,0.0837 0.58239,0.0837 0.35088,0.66146 0.35037,0.66146 -0.10646,1.73478 -0.10645,1.73478 -0.37207,0.77876 -0.37259,0.77876 -0.52658,0.0522 c -0.28967,0.0286 -1.31901,0.12583 -2.28771,0.21653 l -1.76165,0.16536 -0.56793,1.37046 c -0.89009,2.14786 -1.14451,2.58335 -1.67742,2.86856 l -0.49764,0.26613 -0.73535,-0.30489 -0.73536,-0.30437 -0.28215,-0.61909 c -0.15519,-0.34061 -0.42027,-1.13654 -0.5886,-1.76836 -0.16833,-0.63182 -0.54371,-1.70565 -0.83457,-2.38642 l -0.52917,-1.23765 -0.97358,-0.64441 c -0.9932,-0.65725 -2.88548,-1.66676 -3.29334,-1.76526 0.0484,0.0197 0.0827,0.0672 0.0827,0.12247 0,0.0195 -0.004,0.0381 -0.0119,0.0548 0.22288,0.25091 0.70608,0.72854 1.2945,1.27331 l 1.57716,1.46037 1.05369,2.17765 c 1.15144,2.37928 2.43654,5.93707 2.43654,6.74636 v 0.51159 l -0.83561,1.16376 c -2.20595,3.07289 -6.54681,7.17915 -10.35906,9.7994 l -2.33112,1.60248 -3.48971,1.67019 c -3.42663,1.64026 -7.14854,3.06749 -8.84752,3.39255 l -0.35502,0.0682 h -5.1e-4 c -0.24105,0.0881 -0.36971,0.11805 -0.43667,0.0837 l -0.0677,0.0129 v -0.24339 c 0,-0.006 0.002,-0.0142 0.006,-0.0232 0.025,-0.0954 0.12697,-0.20484 0.26045,-0.28319 0.0745,-0.0669 0.16293,-0.14202 0.26303,-0.22376 v -0.0951 l 0.0522,0.0522 c 0.33461,-0.26984 0.7869,-0.60356 1.2821,-0.94154 8.92206,-6.08951 15.38066,-11.74485 19.44429,-17.02584 l 1.18184,-1.53582 v -0.39532 c 0,-0.5915 -0.29002,-1.23249 -0.55759,-1.23249 h -0.23616 v 0.41548 c 0,0.64902 -1.43311,2.57172 -2.89957,3.8902 l -1.33428,1.19941 -2.66651,1.63866 -2.6665,1.63866 -3.21996,2.57142 c -1.77115,1.41417 -4.70876,3.97032 -6.52777,5.68027 -1.81901,1.70996 -4.08119,3.69471 -5.02708,4.41059 l -1.71876,1.30224 -1.05833,0.35037 -1.05833,0.34985 -0.46199,-0.10077 -0.29042,-0.063 h -0.26304 l 0.14986,-0.14935 0.24185,-0.46405 c 0.8165,-1.56614 3.97261,-4.88086 8.95811,-9.40821 l 3.57188,-3.24373 2.64583,-1.79214 c 1.45521,-0.9857 3.47715,-2.25286 4.49326,-2.81637 3.19856,-1.77382 5.69693,-3.83904 6.67608,-5.51852 l 0.32143,-0.55139 0.009,-0.86558 0.009,-0.86558 -0.70177,-1.05989 -0.70125,-1.05988 -1.67328,-1.31465 c -0.92031,-0.72324 -1.86944,-1.615 -2.10943,-1.98127 l -0.43667,-0.66611 -0.11007,-1.12035 -0.11059,-1.12086 0.3421,-0.6413 0.34158,-0.64131 1.16582,-0.61546 1.16634,-0.61547 h 1.44074 1.44074 l 2.37815,0.79685 c 1.30816,0.43827 2.88425,1.09312 3.50211,1.45521 0.61787,0.3621 1.25847,0.65836 1.42368,0.65836 h 0.30024 l -0.004,-0.0662 c -0.0231,0.039 -0.0658,0.0651 -0.11421,0.0651 -0.0728,0 -0.13229,-0.0595 -0.13229,-0.1323 0,-0.0728 0.0595,-0.13229 0.13229,-0.13229 0.0424,0 0.0801,0.0205 0.10439,0.0517 l -0.14728,-2.24275 -0.16123,-2.4567 0.41548,-0.80409 c 0.35168,-0.68007 5.04136,-6.14255 8.35918,-9.73687 l 0.95498,-1.03405 -0.65112,0.36846 -0.66766,0.87591 c -0.83671,1.09699 -0.93309,1.15337 -0.74621,0.43874 l 0.13539,-0.51677 0.67025,-0.43925 0.15554,-0.1018 -0.61598,0.34882 c -0.94588,0.53578 -3.73565,1.99489 -6.19962,3.24269 -16.02714,8.11647 -24.79893,18.60496 -35.37769,42.30181 l -1.41748,3.175 -0.0103,-0.1788 -0.11472,0.17777 -0.004,-0.57981 -0.004,-0.57929 0.0646,-0.0398 -0.0134,-0.23771 -0.0817,-1.43816 0.44493,-2.66289 c 0.53222,-3.18454 1.83479,-8.032 3.12591,-11.6334 l 0.93948,-2.62051 -0.7183,0.66146 c -0.39507,0.36381 -1.01272,0.85856 -1.37253,1.09916 l -0.65422,0.43718 h -0.96377 -0.96376 l -0.76326,-0.59273 c -1.14691,-0.89109 -1.61042,-1.49989 -2.47065,-3.24373 l -0.78342,-1.5875 -0.40824,-2.03915 -0.40825,-2.03967 0.004,-3.1197 0.004,-3.12023 0.52297,-2.4784 c 0.28773,-1.36323 0.99077,-3.87717 1.56218,-5.58622 l 1.03921,-3.1073 1.05058,-2.0867 c 3.99324,-7.93187 11.77763,-13.6323 19.52853,-14.2999 z m 50.86873,3.7915 v 0.0243 0.20257 0.16175 c 0,0.28668 -0.006,0.39254 -0.13229,0.3545 -0.0992,0.32998 -0.24561,0.78014 -0.40773,1.24953 -0.9028,2.61387 -1.8095,6.45918 -2.11563,8.97103 l -0.29042,2.38125 0.1819,2.45153 0.1819,2.45102 -0.11576,-0.0444 c -0.0478,0.0318 -0.13954,-0.0125 -0.31419,-0.12041 l -0.017,-0.007 -0.44752,-0.17156 -2.11822,-3.16209 -2.11873,-3.16208 -0.0553,0.0501 c 0.0554,0.0158 0.0961,0.0668 0.0961,0.12713 0,0.0728 -0.0595,0.13229 -0.13229,0.13229 -0.0649,0 -0.11916,-0.0472 -0.13022,-0.10904 l -0.29301,0.2651 c -0.57446,0.51988 -3.583,4.90981 -5.10253,7.44503 -0.46791,0.78068 -0.88862,1.41198 -1.07022,1.62935 l -0.0186,0.03 c -0.0899,0.14552 -0.21589,0.26459 -0.28009,0.26459 -0.0642,0 -0.11679,-0.11907 -0.11679,-0.26459 0,-0.0101 3.7e-4,-0.0202 0.002,-0.03 l -1.00614,-1.87172 -1.13739,-2.1146 0.032,-0.0429 c -0.004,-0.0132 -0.007,-0.0272 -0.007,-0.0419 0,-0.0728 0.0595,-0.13229 0.13229,-0.13229 0.002,0 0.003,-7e-5 0.005,0 l 0.0677,-0.0899 c 1.01194,-1.34867 3.84025,-4.80067 4.87671,-5.95209 l 1.27124,-1.4118 -0.0171,-0.0274 c -0.0218,0.0433 -0.0667,0.0729 -0.11834,0.0729 -0.0728,0 -0.13229,-0.0595 -0.13229,-0.13229 0,-0.0727 0.0596,-0.1322 0.13229,-0.13229 -0.0937,-0.13185 -1.21545,-0.97661 -2.51147,-1.89136 -1.12198,-0.79191 -1.79215,-1.25493 -2.07119,-1.55236 -0.0154,0.003 -0.0313,0.004 -0.0475,0.004 -0.14552,0 -0.26459,-0.11906 -0.26459,-0.26458 0,-0.14552 0.11907,-0.26459 0.26459,-0.26459 0.0463,0 0.0902,0.0119 0.12815,0.0331 0.22446,-0.0915 0.60693,-0.16891 1.12862,-0.2837 2.19196,-0.48233 8.78447,-2.71739 11.64166,-3.94705 l 1.66864,-0.71778 -0.0594,-0.0377 0.41909,-0.16123 z m -62.83854,7.12721 c 0.0728,0 0.13229,0.0595 0.13229,0.13229 0,0.0728 -0.0595,0.1323 -0.13229,0.1323 -0.0728,0 -0.13229,-0.0595 -0.13229,-0.1323 0,-0.0728 0.0595,-0.13229 0.13229,-0.13229 z m 44.6319,11.59619 0.0522,0.0491 c 0.01,-0.002 0.02,-0.004 0.0305,-0.004 0.0728,0 0.13229,0.0595 0.13229,0.1323 0,0.008 -8.2e-4,0.015 -0.002,0.0222 l 0.39894,0.37517 c 0.33672,0.31634 0.88619,1.09157 1.22111,1.72289 l 0.60927,1.14773 -0.35967,0.67128 -0.35915,0.67128 0.1757,2.5895 c 0.0966,1.42423 0.24995,3.90187 0.34055,5.50561 l 0.16484,2.91558 -0.60203,1.18546 c -0.90853,1.78894 -3.94915,6.06563 -5.2157,7.3365 -0.37688,0.37818 -0.76152,0.71419 -1.04128,0.91829 -0.0909,0.1165 -0.24586,0.20619 -0.36483,0.20619 h -0.009 c -8.6e-4,3e-5 -0.002,0 -0.003,0 h -0.29766 l 0.19689,-0.33383 0.0238,-0.0615 0.15141,-0.39532 0.0692,0.0429 0.0755,-0.12764 c 0.28414,-0.48158 0.90683,-1.88057 1.38389,-3.10886 l 0.86713,-2.23345 0.13178,-2.41329 0.13177,-2.41381 -0.59789,-4.77335 -0.5979,-4.77335 0.15503,-0.61908 0.15555,-0.61909 1.49138,-1.80816 z m -24.52357,7.68326 0.58033,0.2837 c 0.31931,0.15607 0.65416,0.40201 0.74362,0.54674 0.2388,0.3864 0.0782,0.31651 -0.66249,-0.28939 z m 39.56038,0.21342 0.68626,0.3669 c 0.37745,0.20201 1.62119,1.35467 2.76366,2.5616 l 2.07687,2.1947 0.94413,1.91358 0.94413,1.91306 0.15658,1.33377 0.15658,1.33325 -0.31006,1.49448 -0.31058,1.49449 -0.58342,0.87643 -0.58343,0.87591 -0.97307,0.4775 -0.97306,0.47749 -1.03922,-0.28009 c -0.57162,-0.15392 -1.34163,-0.51767 -1.711,-0.80822 -0.9422,-0.74116 -0.98496,-0.70131 -0.98496,0.90847 v 1.43609 l -0.42891,0.42891 -0.42892,0.42892 -0.43098,-0.0822 -0.0522,-0.01 c -0.023,0.0392 -0.0657,0.0656 -0.11421,0.0656 -0.066,0 -0.12104,-0.0487 -0.13074,-0.11214 0,0 0,-5.2e-4 0,-5.2e-4 l -0.13384,-0.0253 -0.15865,-2.51044 -0.15916,-2.51096 -0.33176,-1.19062 c -0.38297,-1.37359 -1.01996,-2.69796 -1.42214,-2.95693 l -0.27853,-0.17931 -0.67696,0.37 c -0.37241,0.20361 -1.07957,0.71059 -1.57148,1.12655 l -0.89401,0.75654 0.32453,0.0537 0.14108,-0.22893 c 0.0899,-0.14552 0.21591,-0.26458 0.28008,-0.26458 0.0642,0 0.11679,0.11906 0.11679,0.26458 0,0.14553 -0.12597,0.26459 -0.28008,0.26459 h -0.0429 l 1.24488,0.20619 1.78439,0.29558 0.49868,0.45166 0.49919,0.45165 v 0.87023 0.87023 l -0.59531,0.67541 -0.59532,0.6749 -1.73891,0.23926 -1.73891,0.23874 -2.09755,1.0542 c -1.15368,0.57984 -2.87947,1.29605 -3.83542,1.59112 -0.95595,0.29507 -2.28393,0.6183 -2.95072,0.7183 l -1.21233,0.1819 -0.55553,-0.55552 -0.555,-0.555 v -0.53796 c 0,-0.79847 0.64337,-2.17169 1.28571,-2.74401 l 0.56534,-0.50333 1.11776,0.50333 1.11828,0.50384 1.46244,-0.009 1.46193,-0.009 1.19062,-0.65784 1.19063,-0.65784 v -0.38551 -0.001 c -0.0728,0 -0.13229,-0.0595 -0.13229,-0.13229 0,-0.0728 0.0595,-0.13229 0.13229,-0.13229 v -0.11989 l -1.39578,-0.31006 c -0.76755,-0.17044 -1.57122,-0.45536 -1.78594,-0.63355 l -0.39016,-0.32401 v -0.83509 -0.83458 l 0.39636,-0.56585 0.39636,-0.56638 1.37873,-0.29559 1.37872,-0.29559 0.47388,-0.42891 c 0.26061,-0.23584 0.47387,-0.58493 0.47387,-0.77618 v -0.34778 l -1.42369,-0.91106 c -0.78312,-0.50095 -1.61656,-1.18613 -1.85208,-1.52239 l -0.4284,-0.61133 v -1.14205 -1.14256 l 0.52555,-1.0294 c 0.28896,-0.56641 0.6512,-1.10793 0.80512,-1.20303 l 0.10852,-0.0672 0.14831,-0.14882 0.17622,0.17673 0.17673,0.17622 h -0.004 l 1.63607,1.55391 1.96216,1.86448 1.05678,0.53899 c 0.58113,0.29647 1.72256,0.7883 2.5368,1.09295 l 1.48052,0.55398 0.69712,0.59944 0.69711,0.59945 0.18759,1.81332 0.18759,1.81333 0.8263,0.73794 0.82631,0.73846 h 0.88935 0.88987 l 0.33124,-0.39946 0.33125,-0.39946 -0.14108,-1.05472 -0.14159,-1.05523 -0.7767,-1.65416 c -0.42723,-0.9099 -1.10916,-2.04741 -1.51515,-2.5275 l -0.73794,-0.87281 -1.2392,-0.62787 c -0.68141,-0.34529 -1.39774,-0.81943 -1.59215,-1.05368 l -0.35347,-0.42582 0.30128,-1.00717 0.30179,-1.00666 0.53433,-0.48317 z m -30.82913,1.40922 c 0.0728,0 0.13229,0.0595 0.13229,0.13229 0,0.0728 -0.0595,0.13229 -0.13229,0.13229 -0.0728,0 -0.13229,-0.0595 -0.13229,-0.13229 0,-0.0728 0.0595,-0.13229 0.13229,-0.13229 z m 9.81956,0 h 0.68006 0.68058 l 0.26251,0.33073 c 0.14437,0.1819 0.40809,0.7841 0.58653,1.3379 l 0.32453,1.00666 0.0114,1.7787 c 0.006,0.97819 -0.0765,2.05412 -0.18345,2.39107 l -0.19431,0.61288 -0.92242,-0.17312 -0.92243,-0.17311 -0.60461,0.39584 -0.60461,0.39636 -0.74208,1.27382 c -0.40839,0.70049 -1.4066,2.28534 -2.21795,3.52227 l -1.47536,2.24895 -1.85209,1.96164 -1.85208,1.96164 -2.10065,1.56425 c -1.15539,0.86038 -2.54984,1.79333 -3.09851,2.07325 l -0.99736,0.50902 h -1.01596 -1.01596 l -0.31781,-0.3173 -0.31729,-0.31781 v -0.88625 -0.88625 l 0.40359,-0.78031 0.4036,-0.78083 h 0.87798 0.87746 l 1.85364,-1.30173 1.85363,-1.30122 1.38855,-1.54305 c 1.93796,-2.15299 3.60383,-4.67803 5.7304,-8.68526 l 1.82469,-3.43803 1.3379,-1.39062 z m -38.65914,0.79375 c 0.0728,0 0.13229,0.0595 0.13229,0.13229 0,0.0728 -0.0595,0.13229 -0.13229,0.13229 -0.0728,0 -0.13229,-0.0595 -0.13229,-0.13229 0,-0.0728 0.0595,-0.13229 0.13229,-0.13229 z m 76.46458,1.85208 c 0.0728,0 0.13229,0.0595 0.13229,0.13229 0,0.0728 -0.0595,0.13229 -0.13229,0.13229 -0.0728,0 -0.13229,-0.0595 -0.13229,-0.13229 0,-0.0728 0.0595,-0.13229 0.13229,-0.13229 z m -54.90104,3.8809 0.17622,0.17622 0.17673,0.17621 -0.17673,0.17674 -0.17622,0.17621 v -0.35295 z m -25.93537,3.50004 -0.15761,0.41083 c -0.17589,0.45837 -0.36535,0.54181 -0.36535,0.16123 0,-0.13693 0.11763,-0.3214 0.26148,-0.41031 z m 61.78641,1.87948 c 0.0728,0 0.13229,0.0595 0.13229,0.13229 0,0.0728 -0.0595,0.13229 -0.13229,0.13229 -0.0728,0 -0.13229,-0.0595 -0.13229,-0.13229 0,-0.0728 0.0595,-0.13229 0.13229,-0.13229 z m 0.19379,0.66145 0.12195,0.46819 c 0.0671,0.25743 0.0629,0.61461 -0.01,0.79375 l -0.13178,0.32556 0.01,-0.79375 z"
         style="fill:#bca160"
         id="path110" /><path
         d="m -511.19512,133.44686 h 0.28008 l -0.10335,0.16795 c 0.13188,0.13118 0.2729,0.3823 0.44803,0.75137 l 0.43667,0.91933 1.71049,7.58455 c 0.94084,4.17166 1.71049,7.66867 1.71049,7.77058 0,0.0148 -0.0104,0.0324 -0.0305,0.0522 0.0191,0.023 0.0305,0.0522 0.0305,0.0842 0,0.0728 -0.0595,0.13229 -0.13229,0.13229 -0.053,0 -0.0988,-0.0313 -0.11989,-0.0765 -0.20609,0.10351 -0.51961,0.22392 -0.8692,0.32867 -0.61683,0.18481 -2.5989,1.10516 -4.40438,2.04483 l -3.01532,1.56942 -0.0139,0.0139 -0.17622,0.17673 v -0.092 l -0.077,0.0403 0.17984,-1.53944 c 0.099,-0.84678 0.76863,-5.20001 1.48776,-9.67383 l 1.30741,-8.13439 0.54054,-1.05988 c 0.22127,-0.43373 0.39278,-0.72513 0.54364,-0.87643 0.0363,-0.10644 0.14226,-0.18397 0.26665,-0.18397 z"
         style="fill:#bca160"
         id="path102" /><path
         d="m -509.75542,122.2677 -3.70417,0.15554 -3.70416,0.15503 -2.77813,0.41393 -2.77812,0.41445 -3.56464,0.93431 c -7.20472,1.88838 -13.32857,4.88172 -19.78484,9.67072 l -2.57969,1.91358 -2.73885,2.6634 c -3.5707,3.47269 -5.89948,6.23716 -8.38812,9.95754 l -2.02313,3.02462 -1.82831,3.69176 -1.82831,3.69177 -1.17048,3.58427 -1.17047,3.58428 -0.53536,2.64583 c -0.29457,1.45521 -0.68467,3.77693 -0.86714,5.15938 l -0.33176,2.51354 0.0186,4.7625 0.0186,4.7625 0.57412,3.42408 c 1.65261,9.8594 5.18178,18.2074 11.03809,26.10849 l 2.03605,2.7466 3.59823,3.59823 3.59823,3.59771 2.56315,1.89291 c 8.09543,5.97833 17.49051,9.87873 26.87743,11.15849 0.88147,0.12017 1.51065,0.21537 1.90376,0.22221 l 0.14366,-0.23306 0.1664,-0.26872 0.13798,0.0853 c -0.17186,-0.38104 -0.75423,-1.06486 -1.70326,-2.21485 -1.13114,-1.37066 -2.62111,-3.22963 -3.31091,-4.13101 l -1.25418,-1.63918 -2.31098,-0.69505 c -15.27443,-4.59521 -27.42225,-15.79683 -33.38762,-30.78675 l -1.09244,-2.74454 -0.64079,-2.54713 c -0.78915,-3.13452 -1.38314,-6.76157 -1.61902,-9.88621 l -0.1788,-2.36679 5.3728,0.19482 5.37331,0.19431 -0.17363,-1.66398 c -0.0957,-0.91525 -0.17415,-2.18235 -0.17415,-2.81585 v -0.88729 h -0.26458 -0.35295 l 0.17673,-0.17621 0.0879,-0.0884 h -0.84801 c -1.07637,0 -3.98811,0.2572 -7.63209,0.67386 l -1.29243,0.14779 0.18293,-1.93218 c 0.78083,-8.25125 4.34247,-17.20454 9.76478,-24.5463 l 1.85105,-2.50579 2.5368,-2.6169 c 7.84235,-8.09009 17.32631,-13.04389 28.46596,-14.86834 l 2.64583,-0.43305 3.83646,-0.14469 3.83646,-0.14418 2.75281,0.30179 c 1.51406,0.16596 3.95483,0.54473 5.42395,0.84181 l 2.67116,0.54053 3.16415,1.05317 c 7.19811,2.39646 13.34715,6.14893 19.02519,11.61066 l 2.34559,2.25619 1.98128,2.4629 c 5.63468,7.00306 9.40249,15.47484 10.789,24.26002 l 0.37569,2.38125 0.0496,2.24896 0.0491,2.24896 -4.28242,-0.0331 -3.81786,-0.0294 c 0.053,0.0485 0.0863,0.11782 0.0863,0.19482 0,0.14552 -0.11906,0.26458 -0.26458,0.26458 -0.0177,0 -0.0349,-0.002 -0.0517,-0.005 0.17201,0.34463 0.47021,0.94587 0.78962,1.59267 l 0.84904,1.71979 5.2e-4,0.87281 v 0.75913 l 0.0884,-0.0884 0.17621,-0.17673 0.17622,0.17673 0.16847,0.16795 2.72851,-0.15141 3.33778,-0.18552 -0.17828,1.42937 c -2.56244,20.59189 -16.5064,37.03067 -36.65823,43.21596 l -2.77709,0.85215 -2.99052,3.8163 c -1.64492,2.09884 -3.10452,4.01673 -3.24321,4.26228 l -0.14883,0.26406 0.03,-0.0491 c 0.033,-0.0533 0.0796,-0.10303 0.13281,-0.14469 0.006,-0.067 0.0632,-0.11989 0.13178,-0.11989 0.0228,0 0.0443,0.006 0.063,0.016 0.0347,-0.0104 0.0685,-0.016 0.10026,-0.016 h 0.26458 l -0.1633,0.26458 c -0.0374,0.0605 -0.0924,0.11655 -0.15451,0.16123 l 0.48472,-0.0672 c 0.54595,-0.0757 2.36194,-0.37 4.03542,-0.6537 5.72128,-0.96993 10.34028,-2.47477 15.7427,-5.12941 l 2.91042,-1.4304 2.8851,-1.88102 c 12.72099,-8.29392 21.45268,-20.37964 25.17675,-34.84749 l 0.90072,-3.49901 0.40153,-3.06286 0.40153,-3.06286 v -4.42506 -4.42557 l -0.2713,-2.24172 c -1.28603,-10.6388 -5.0693,-20.06887 -11.43703,-28.50679 l -1.91772,-2.54144 -2.76003,-2.88096 -2.76004,-2.88096 -2.66392,-2.14613 c -3.58705,-2.88996 -6.7441,-4.90872 -10.86601,-6.94841 l -3.43958,-1.70222 -3.62975,-1.19321 -3.62975,-1.19269 -3.24942,-0.65216 -3.24941,-0.65267 -3.43959,-0.31006 z"
         style="fill:#bca160"
         id="path83" /><path
         d="m -419.48031,88.928133 -0.66817,-0.66818 -1.50069,-1.50068 -0.13746,96.831817 -0.13746,96.83181 -0.48265,1.5875 c -0.34306,1.12763 -0.7259,2.17256 -1.15911,3.16208 l -0.0971,0.2775 -0.15399,0.27596 c -0.47061,1.0073 -0.99764,1.96042 -1.59681,2.88716 l -0.13384,0.20722 -0.33486,0.59841 -0.15038,0.15193 -0.57051,0.88264 -1.63607,1.63607 -1.63556,1.63556 -0.72864,0.46819 -0.0413,0.0419 -0.2682,0.1571 -0.80202,0.51521 -1.8402,1.18236 -1.7539,0.69505 c -0.77335,0.30648 -1.92094,0.6833 -2.8236,0.93327 l -1.24333,0.43202 h -0.5302 l -0.52814,0.12454 -81.49166,-5.2e-4 -81.49167,-10e-4 -0.57877,-0.12299 h -0.21498 l -0.44907,-0.14108 -0.47697,-0.10128 c -0.94588,-0.20099 -2.40441,-0.66865 -3.24115,-1.03921 -1.769,-0.78341 -1.77908,-0.76632 -0.68574,1.14928 l 0.49506,0.86765 c 1.07196,1.35461 2.51157,2.84096 3.75791,3.77134 l 0.48421,0.36174 1.39319,0.68109 c 1.04355,0.5101 2.55241,1.10012 3.35277,1.31103 l 1.45521,0.38344 81.35937,-0.0501 80.53669,-0.0496 1.2206,-0.12505 1.92546,-0.6041 2.24896,-0.70538 c 0.0417,-0.0162 0.0835,-0.0327 0.12506,-0.0491 l 1.99161,-1.00873 c 3.65789,-1.85248 6.8773,-4.59985 9.2201,-7.86825 l 1.15756,-1.61489 c 0.006,-0.0104 0.0121,-0.0211 0.0181,-0.0315 l 1.0263,-2.19005 1.01544,-2.16782 c 0.0113,-0.0308 0.0219,-0.0618 0.0331,-0.0925 l 0.59945,-2.19625 0.51573,-1.88929 0.0982,-0.87023 V 190.99377 97.595861 l -0.7431,-2.11667 -0.39429,-1.12345 c -0.23658,-0.54801 -0.48892,-1.10188 -0.73019,-1.5937 l -0.13281,-0.27078 -0.54932,-0.92966 -1.05782,-1.79111 z"
         style="fill:#e8e8e2"
         id="path58" /><path
         d="M -593.76063,71.798943 V 180.27811 288.75728 h 3.30729 3.3073 V 180.27811 71.798943 h -3.3073 z"
         style="fill:#65a3d2"
         id="path55" /></g></g></svg>
